<svg width="26" height="26" viewBox="0 0 26 26" fill="none" xmlns="http://www.w3.org/2000/svg">
<path d="M13 13.5417C14.1785 13.5417 15.3305 13.1922 16.3103 12.5375C17.2902 11.8828 18.0538 10.9522 18.5048 9.86349C18.9558 8.77475 19.0738 7.57673 18.8439 6.42092C18.614 5.26512 18.0465 4.20345 17.2132 3.37016C16.3799 2.53687 15.3183 1.96939 14.1625 1.73949C13.0067 1.50959 11.8086 1.62758 10.7199 2.07855C9.63114 2.52953 8.70058 3.29322 8.04587 4.27306C7.39116 5.25291 7.04171 6.40489 7.04171 7.58334C7.04358 9.16301 7.67194 10.6774 8.78893 11.7944C9.90593 12.9114 11.4204 13.5398 13 13.5417V13.5417ZM13 2.70834C13.9642 2.70834 14.9068 2.99425 15.7084 3.52992C16.5101 4.06559 17.135 4.82696 17.504 5.71775C17.8729 6.60854 17.9695 7.58874 17.7814 8.5344C17.5933 9.48006 17.129 10.3487 16.4472 11.0305C15.7654 11.7123 14.8968 12.1766 13.9511 12.3647C13.0054 12.5528 12.0252 12.4562 11.1345 12.0872C10.2437 11.7183 9.4823 11.0934 8.94663 10.2917C8.41095 9.49005 8.12504 8.54752 8.12504 7.58334C8.12645 6.29084 8.64052 5.05168 9.55445 4.13775C10.4684 3.22381 11.7075 2.70974 13 2.70834V2.70834ZM7.58337 16.7917H18.4167C19.7092 16.7931 20.9484 17.3071 21.8623 18.2211C22.7762 19.135 23.2903 20.3742 23.2917 21.6667V23.8333C23.2917 23.977 23.2346 24.1148 23.1331 24.2164C23.0315 24.3179 22.8937 24.375 22.75 24.375C22.6064 24.375 22.4686 24.3179 22.367 24.2164C22.2654 24.1148 22.2084 23.977 22.2084 23.8333V21.6667C22.2072 20.6614 21.8073 19.6977 21.0965 18.9869C20.3857 18.2761 19.4219 17.8762 18.4167 17.875H7.58337C6.57813 17.8762 5.61442 18.2761 4.9036 18.9869C4.19279 19.6977 3.79292 20.6614 3.79171 21.6667V23.8333C3.79171 23.977 3.73464 24.1148 3.63306 24.2164C3.53147 24.3179 3.3937 24.375 3.25004 24.375C3.10638 24.375 2.96861 24.3179 2.86702 24.2164C2.76544 24.1148 2.70837 23.977 2.70837 23.8333V21.6667C2.70978 20.3742 3.22385 19.135 4.13778 18.2211C5.05172 17.3071 6.29088 16.7931 7.58337 16.7917V16.7917Z" fill="#00C6ED"/>
</svg>
