<svg width="26" height="26" viewBox="0 0 26 26" fill="none" xmlns="http://www.w3.org/2000/svg">
<path d="M21.6667 18.9583C21.131 18.9583 20.6074 19.1172 20.162 19.4148C19.7166 19.7124 19.3695 20.1353 19.1645 20.6302C18.9595 21.1251 18.9059 21.6697 19.0104 22.195C19.1149 22.7204 19.3728 23.203 19.7516 23.5817C20.1304 23.9605 20.6129 24.2185 21.1383 24.323C21.6637 24.4275 22.2082 24.3738 22.7031 24.1688C23.198 23.9639 23.621 23.6167 23.9186 23.1713C24.2162 22.726 24.375 22.2023 24.375 21.6667C24.3743 20.9486 24.0888 20.2601 23.581 19.7523C23.0732 19.2446 22.3848 18.959 21.6667 18.9583ZM21.6667 23.2917C21.3453 23.2917 21.0311 23.1964 20.7639 23.0178C20.4966 22.8392 20.2884 22.5855 20.1654 22.2885C20.0424 21.9916 20.0102 21.6649 20.0729 21.3496C20.1356 21.0344 20.2904 20.7449 20.5176 20.5176C20.7449 20.2904 21.0344 20.1356 21.3496 20.0729C21.6649 20.0102 21.9916 20.0424 22.2885 20.1654C22.5855 20.2884 22.8392 20.4966 23.0178 20.7639C23.1964 21.0311 23.2917 21.3453 23.2917 21.6667C23.2912 22.0975 23.1198 22.5106 22.8152 22.8152C22.5106 23.1198 22.0975 23.2912 21.6667 23.2917ZM4.33333 21.125C4.86899 21.125 5.39262 20.9662 5.838 20.6686C6.28339 20.371 6.63052 19.948 6.83551 19.4531C7.04049 18.9582 7.09413 18.4137 6.98963 17.8883C6.88513 17.3629 6.62718 16.8804 6.24841 16.5016C5.86965 16.1228 5.38707 15.8649 4.8617 15.7604C4.33634 15.6559 3.79178 15.7095 3.2969 15.9145C2.80202 16.1195 2.37903 16.4666 2.08144 16.912C1.78384 17.3574 1.625 17.881 1.625 18.4167C1.62566 19.1348 1.91122 19.8232 2.41898 20.331C2.92675 20.8388 3.61524 21.1243 4.33333 21.125ZM4.33333 16.7917C4.65473 16.7917 4.96891 16.887 5.23614 17.0655C5.50337 17.2441 5.71165 17.4979 5.83464 17.7948C5.95763 18.0917 5.98981 18.4185 5.92711 18.7337C5.86441 19.0489 5.70964 19.3385 5.48238 19.5657C5.25512 19.793 4.96557 19.9477 4.65036 20.0104C4.33514 20.0731 4.0084 20.041 3.71147 19.918C3.41454 19.795 3.16075 19.5867 2.9822 19.3195C2.80364 19.0522 2.70833 18.7381 2.70833 18.4167C2.7088 17.9858 2.88016 17.5728 3.1848 17.2681C3.48945 16.9635 3.9025 16.7921 4.33333 16.7917ZM21.6667 1.625C21.131 1.625 20.6074 1.78384 20.162 2.08144C19.7166 2.37903 19.3695 2.80202 19.1645 3.2969C18.9595 3.79178 18.9059 4.33634 19.0104 4.8617C19.1149 5.38707 19.3728 5.86965 19.7516 6.24841C20.1304 6.62718 20.6129 6.88513 21.1383 6.98963C21.6637 7.09413 22.2082 7.04049 22.7031 6.83551C23.198 6.63052 23.621 6.28339 23.9186 5.838C24.2162 5.39262 24.375 4.86899 24.375 4.33333C24.3743 3.61524 24.0888 2.92675 23.581 2.41898C23.0732 1.91122 22.3848 1.62566 21.6667 1.625ZM21.6667 5.95833C21.3453 5.95833 21.0311 5.86303 20.7639 5.68447C20.4966 5.50591 20.2884 5.25212 20.1654 4.95519C20.0424 4.65826 20.0102 4.33153 20.0729 4.01631C20.1356 3.70109 20.2904 3.41155 20.5176 3.18428C20.7449 2.95702 21.0344 2.80226 21.3496 2.73956C21.6649 2.67686 21.9916 2.70904 22.2885 2.83203C22.5855 2.95502 22.8392 3.1633 23.0178 3.43053C23.1964 3.69776 23.2917 4.01194 23.2917 4.33333C23.2912 4.76417 23.1198 5.17722 22.8152 5.48186C22.5106 5.78651 22.0975 5.95786 21.6667 5.95833ZM5.41667 1.625C4.41105 1.625 3.44663 2.02448 2.73555 2.73555C2.02448 3.44663 1.625 4.41105 1.625 5.41667C1.625 6.42228 2.02448 7.3867 2.73555 8.09778C3.44663 8.80886 4.41105 9.20833 5.41667 9.20833C6.23325 9.20566 7.02671 8.9369 7.67683 8.44277L9.20807 9.97402C8.62582 10.6805 8.26043 11.5403 8.15597 12.4498C8.05152 13.3592 8.21246 14.2795 8.61939 15.0996L7.67405 15.6904C7.90562 15.9691 8.10118 16.2758 8.25612 16.6034L9.19849 16.0143C9.59045 16.521 10.08 16.9439 10.6381 17.2582C11.1962 17.5725 11.8117 17.7717 12.4481 17.8442C13.0845 17.9167 13.729 17.8609 14.3435 17.6802C14.9581 17.4995 15.5301 17.1974 16.026 16.7919L18.2574 19.0234C18.4798 18.7371 18.7371 18.4798 19.0233 18.2575L16.7919 16.026C17.4922 15.1731 17.8749 14.1036 17.8749 13C17.8749 11.8964 17.4922 10.827 16.7919 9.97405L19.0234 7.74258C18.7371 7.52025 18.4798 7.26294 18.2575 6.97667L16.026 9.20807C15.173 8.50778 14.1036 8.125 13 8.125C11.8964 8.125 10.827 8.50778 9.97402 9.20807L8.44277 7.67683C8.9369 7.02671 9.20566 6.23325 9.20833 5.41667C9.20712 4.41143 8.80725 3.44771 8.09644 2.7369C7.38563 2.02608 6.42191 1.62622 5.41667 1.625ZM13 9.20833C13.7499 9.20833 14.483 9.43071 15.1065 9.84734C15.7301 10.264 16.2161 10.8562 16.503 11.549C16.79 12.2418 16.8651 13.0042 16.7188 13.7397C16.5725 14.4752 16.2114 15.1508 15.6811 15.6811C15.1508 16.2114 14.4752 16.5725 13.7397 16.7188C13.0042 16.8651 12.2418 16.79 11.549 16.503C10.8562 16.2161 10.264 15.7301 9.84734 15.1065C9.43071 14.483 9.20833 13.7499 9.20833 13C9.20955 11.9948 9.60942 11.031 10.3202 10.3202C11.031 9.60942 11.9948 9.20955 13 9.20833ZM5.41667 8.125C4.88101 8.125 4.35738 7.96616 3.912 7.66856C3.46661 7.37097 3.11948 6.94798 2.91449 6.4531C2.70951 5.95822 2.65587 5.41366 2.76037 4.8883C2.86487 4.36293 3.12282 3.88035 3.50159 3.50159C3.88035 3.12282 4.36293 2.86487 4.8883 2.76037C5.41366 2.65587 5.95822 2.70951 6.4531 2.91449C6.94798 3.11948 7.37097 3.46661 7.66856 3.912C7.96616 4.35738 8.125 4.88101 8.125 5.41667C8.12434 6.13476 7.83878 6.82325 7.33102 7.33102C6.82325 7.83878 6.13476 8.12434 5.41667 8.125Z" fill="#00C6ED"/>
</svg>
