<svg width="24" height="20" viewBox="0 0 24 20" fill="none" xmlns="http://www.w3.org/2000/svg">
<path d="M24 2.38454C23.0979 2.7885 22.1433 3.05582 21.1662 3.17812C21.6771 2.86161 22.1293 2.45474 22.5018 1.97637C22.8763 1.49642 23.1623 0.950427 23.3458 0.365202C22.3765 0.958273 21.3136 1.3731 20.2051 1.59096C19.7553 1.09644 19.2131 0.699784 18.6108 0.424595C17.9836 0.140121 17.3043 -0.00336058 16.6185 0.00379511C15.9718 0.00181877 15.3312 0.131482 14.7337 0.385272C14.1362 0.639062 13.5938 1.01193 13.1378 1.48228C12.6792 1.94992 12.3157 2.50625 12.0682 3.11903C11.8208 3.73182 11.6944 4.38887 11.6963 5.05213C11.697 5.44012 11.7383 5.82691 11.8195 6.20585C9.8342 6.09893 7.89344 5.56233 6.12475 4.63133C4.40591 3.7227 2.88967 2.45806 1.67195 0.917423C1.24743 1.69636 1.02154 2.57263 1.01525 3.46497C1.00588 4.30855 1.20782 5.14048 1.60172 5.88109C1.98448 6.60118 2.5315 7.21555 3.19606 7.6717C2.41262 7.6488 1.64605 7.43296 0.961035 7.0424V7.09042C0.965118 8.2661 1.3656 9.40414 2.09456 10.3115C2.81369 11.2046 3.81106 11.816 4.91853 12.0427C4.49358 12.1733 4.05243 12.2402 3.60881 12.2411C3.30165 12.2417 2.99526 12.2095 2.69459 12.1451C3.00126 13.1393 3.60463 14.0096 4.41953 14.6332C5.25047 15.2699 6.25346 15.6266 7.29031 15.6543C6.43733 16.33 5.48324 16.8596 4.46512 17.2225C3.40624 17.6027 2.29358 17.8017 1.17172 17.8113C0.780098 17.8113 0.388826 17.7872 0 17.7393C1.10147 18.4641 2.29679 19.0264 3.5509 19.4099C4.84747 19.8059 6.19376 20.0043 7.54659 19.9987C12.0938 19.8227 15.5626 18.2642 17.9529 15.3232C20.2489 12.6376 21.5294 9.19626 21.5617 5.62457C21.5617 5.41649 21.5539 5.19998 21.5383 4.97505C22.4988 4.26413 23.3317 3.38762 24 2.38454Z" fill="#00C6ED"/>
</svg>
