<svg width="26" height="22" viewBox="0 0 26 22" fill="none" xmlns="http://www.w3.org/2000/svg">
<path d="M22.0245 2.58012C20.3414 1.79268 18.5419 1.22039 16.6605 0.894531C16.4294 1.31228 16.1595 1.87415 15.9734 2.32112C13.9734 2.02035 11.9918 2.02035 10.0286 2.32112C9.84251 1.87415 9.56643 1.31228 9.33331 0.894531C7.44987 1.22039 5.64824 1.79478 3.96521 2.58429C0.57053 7.7141 -0.349712 12.7165 0.11041 17.6478C2.36194 19.3292 4.54394 20.3506 6.68912 21.019C7.21878 20.29 7.69116 19.5151 8.09811 18.6985C7.32306 18.404 6.58074 18.0405 5.87933 17.6186C6.06541 17.4808 6.24743 17.3366 6.42328 17.1883C10.7014 19.1893 15.3496 19.1893 19.5766 17.1883C19.7545 17.3366 19.9365 17.4808 20.1206 17.6186C19.4171 18.0426 18.6727 18.406 17.8977 18.7006C18.3046 19.5151 18.775 20.2921 19.3067 21.0211C21.4539 20.3527 23.638 19.3313 25.8895 17.6478C26.4294 11.9311 24.9672 6.9747 22.0245 2.58012ZM8.68094 14.6151C7.3967 14.6151 6.34351 13.4162 6.34351 11.9562C6.34351 10.4962 7.37421 9.29523 8.68094 9.29523C9.98771 9.29523 11.0409 10.4941 11.0184 11.9562C11.0204 13.4162 9.98771 14.6151 8.68094 14.6151ZM17.319 14.6151C16.0347 14.6151 14.9815 13.4162 14.9815 11.9562C14.9815 10.4962 16.0122 9.29523 17.319 9.29523C18.6257 9.29523 19.6789 10.4941 19.6564 11.9562C19.6564 13.4162 18.6257 14.6151 17.319 14.6151Z" fill="#00C6ED"/>
</svg>
