<svg width="18" height="20" viewBox="0 0 18 20" fill="none" xmlns="http://www.w3.org/2000/svg">
<path d="M3 19.5H15C15.6628 19.4992 16.2982 19.2356 16.7669 18.7669C17.2356 18.2982 17.4992 17.6628 17.5 17V8.5C17.4983 7.80171 17.3349 7.1133 17.0226 6.48871C16.7104 5.86412 16.2578 5.32031 15.7002 4.8999H15.6997L10.5 1C10.0664 0.67755 9.54038 0.503418 9 0.503418C8.45962 0.503418 7.93363 0.67755 7.5 1L2.2998 4.8999C1.74224 5.32031 1.28961 5.86412 0.977356 6.48871C0.665105 7.1133 0.501719 7.80171 0.5 8.5V17C0.500778 17.6628 0.76442 18.2982 1.23309 18.7669C1.70176 19.2356 2.3372 19.4992 3 19.5ZM11.2002 18.5H6.7998V14.5C6.7998 13.9165 7.03161 13.3568 7.44422 12.9442C7.85684 12.5316 8.41647 12.2998 9 12.2998C9.58353 12.2998 10.1432 12.5316 10.5558 12.9442C10.9684 13.3568 11.2002 13.9165 11.2002 14.5V18.5ZM1.5 8.5C1.50135 7.95685 1.62843 7.42139 1.8713 6.93556C2.11417 6.44973 2.46623 6.02674 2.8999 5.69971L8.09961 1.7998C8.35996 1.60639 8.67567 1.50195 9 1.50195C9.32433 1.50195 9.64004 1.60639 9.90039 1.7998L15.1001 5.69971C15.5337 6.02677 15.8858 6.44978 16.1286 6.9356C16.3715 7.42141 16.4986 7.95686 16.5 8.5V17C16.4996 17.3977 16.3414 17.779 16.0602 18.0602C15.779 18.3414 15.3977 18.4996 15 18.5H12.2002V14.5C12.2002 13.6513 11.863 12.8373 11.2629 12.2371C10.6627 11.637 9.84875 11.2998 9 11.2998C8.15125 11.2998 7.33727 11.637 6.73712 12.2371C6.13696 12.8373 5.7998 13.6513 5.7998 14.5V18.5H3C2.60231 18.4996 2.22103 18.3414 1.93982 18.0602C1.65861 17.779 1.50043 17.3977 1.5 17V8.5Z" fill="white"/>
</svg>
