<svg width="64" height="64" viewBox="0 0 64 64" fill="none" xmlns="http://www.w3.org/2000/svg">
<path d="M31.9739 37.1244C30.9427 38.8298 29.9908 40.4956 29.0389 42.1614C28.6423 42.8357 28.2457 43.4703 27.8887 44.1842C27.8298 44.4051 27.8298 44.6376 27.8887 44.8585C28.563 47.4761 29.2769 50.0938 29.9908 52.7908C30.4415 54.5115 31.4832 56.0187 32.9335 57.0484C34.3838 58.0781 36.1502 58.5647 37.9232 58.4229C39.1559 58.3074 40.3396 57.8836 41.3654 57.1905C42.3913 56.4974 43.2262 55.5572 43.7932 54.4567C44.0899 53.8983 44.5786 53.4661 45.1692 53.2401C45.7597 53.0141 46.4121 53.0095 47.0058 53.2271C47.4009 53.3414 47.763 53.5485 48.0617 53.8311C48.3605 54.1138 48.5873 54.4639 48.7231 54.8521C48.859 55.2403 48.9 55.6554 48.8428 56.0627C48.7855 56.47 48.6316 56.8576 48.394 57.1933C47.5606 58.7004 46.4265 60.0202 45.0619 61.0709C43.6974 62.1216 42.1316 62.8807 40.4616 63.3013C38.8103 63.7428 37.0879 63.8525 35.394 63.6241C33.7001 63.3957 32.0683 62.8337 30.5929 61.9706C29.1176 61.1076 27.828 59.9605 26.7988 58.5959C25.7696 57.2313 25.0211 55.6761 24.5968 54.0204C24.0812 51.9976 23.5259 50.0542 23.0103 47.9521C23.0103 47.5951 22.812 47.4365 22.3361 47.5555C21.1859 47.9124 19.996 48.1901 18.8061 48.5074C18.1488 48.6931 17.4449 48.6146 16.8447 48.2886C16.2445 47.9625 15.7955 47.4148 15.5935 46.7622C15.4915 46.4159 15.46 46.0526 15.501 45.6938C15.542 45.3351 15.6546 44.9882 15.8321 44.6738C16.0097 44.3594 16.2486 44.0838 16.5346 43.8635C16.8206 43.6431 17.148 43.4824 17.4973 43.391L22.3757 42.1218C22.5702 42.0755 22.7524 41.9877 22.9098 41.8645C23.0673 41.7413 23.1963 41.5855 23.2879 41.4079C24.4381 39.3454 25.6677 37.2434 26.8575 35.1809L27.1748 34.586H19.2424C18.966 34.585 18.6985 34.6835 18.4888 34.8636L12.9758 40.4956C12.2334 41.2194 11.6519 42.0915 11.2692 43.0551C10.8865 44.0186 10.7112 45.0521 10.7547 46.088C10.7758 47.8928 11.4439 49.6301 12.6376 50.984C13.8313 52.3378 15.4713 53.2182 17.2593 53.4651H18.2905C18.6376 53.4545 18.9833 53.5131 19.3075 53.6375C19.6317 53.7618 19.9279 53.9494 20.1789 54.1893C20.4299 54.4293 20.6307 54.7167 20.7695 55.035C20.9083 55.3532 20.9824 55.6959 20.9875 56.0431C20.9928 56.3954 20.9279 56.7452 20.7968 57.0722C20.6656 57.3992 20.4707 57.6969 20.2234 57.9479C19.9761 58.1988 19.6814 58.3981 19.3564 58.5341C19.0313 58.6702 18.6825 58.7402 18.3302 58.7402C15.5583 58.7631 12.8537 57.8864 10.6225 56.2415C8.39123 54.5967 6.75368 52.2725 5.95565 49.6179C5.2085 47.3706 5.11761 44.9568 5.69365 42.6597C6.26969 40.3625 7.48877 38.2773 9.20793 36.6484C10.7151 35.0619 12.3016 33.5151 13.8484 31.9683V31.77L13.4121 31.2941L10.9927 28.835C10.7505 28.5902 10.5589 28.3001 10.4288 27.9813C10.2988 27.6624 10.2328 27.3211 10.2346 26.9767C10.2364 26.6323 10.3061 26.2917 10.4396 25.9743C10.5731 25.6568 10.7678 25.3688 11.0126 25.1266C11.2573 24.8844 11.5475 24.6928 11.8663 24.5627C12.1852 24.4327 12.5265 24.3666 12.8709 24.3685C13.2152 24.3703 13.5558 24.44 13.8733 24.5735C14.1907 24.7069 14.4788 24.9016 14.7209 25.1464C15.9505 26.3363 17.1403 27.6055 18.4095 28.7953C18.5747 28.9758 18.8007 29.0888 19.0441 29.1126H26.9765V28.7557C25.6677 26.5743 24.3985 24.3532 23.0103 22.1321C22.8857 21.9478 22.7049 21.8086 22.4947 21.7355C19.7184 20.9423 16.942 20.149 14.0864 19.5144C13.0901 19.3514 12.0713 19.3891 11.0898 19.6254C10.1083 19.8617 9.18398 20.2918 8.37108 20.8904C7.55817 21.489 6.87311 22.244 6.35615 23.1111C5.83918 23.9782 5.50074 24.9399 5.36072 25.9397C5.1472 27.6258 5.48088 29.3359 6.31261 30.8181C6.54092 31.1884 6.67336 31.6097 6.69797 32.044C6.72258 32.4783 6.63857 32.9118 6.45354 33.3055C6.26851 33.6992 5.9883 34.0406 5.63823 34.2987C5.28815 34.5569 4.87925 34.7238 4.44849 34.7843C3.93468 34.8666 3.40801 34.7889 2.93979 34.5619C2.47157 34.3349 2.08443 33.9695 1.8308 33.5151C0.936744 32.0505 0.356035 30.4164 0.125335 28.716C-0.120383 26.9888 -0.00396544 25.2294 0.467183 23.5497C0.938331 21.8699 1.7539 20.3066 2.86201 18.9592C3.9318 17.5803 5.2786 16.4409 6.81563 15.6143C8.35265 14.7877 10.0458 14.2924 11.786 14.1601C13.9374 14.0485 16.0905 14.3445 18.1319 15.0326L22.5344 16.1828C22.931 16.1828 23.05 16.1828 23.1293 15.7862C23.4466 14.636 23.7639 13.4858 24.0415 12.3356C24.1248 11.9997 24.2735 11.6834 24.4791 11.4049C24.6846 11.1265 24.943 10.8912 25.2395 10.7126C25.536 10.5339 25.8648 10.4155 26.207 10.3639C26.5493 10.3123 26.8984 10.3287 27.2343 10.412C27.5703 10.4953 27.8865 10.644 28.165 10.8496C28.4435 11.0551 28.6787 11.3135 28.8574 11.61C29.036 11.9065 29.1545 12.2352 29.206 12.5775C29.2576 12.9198 29.2412 13.2689 29.1579 13.6048C28.7216 15.3103 28.2457 17.0157 27.8094 18.7212C27.7308 18.9527 27.7308 19.2036 27.8094 19.4351L31.7756 26.2966V26.4949L33.6397 23.2427L35.7418 19.6334C35.8083 19.4766 35.8426 19.308 35.8426 19.1376C35.8426 18.9673 35.8083 18.7987 35.7418 18.6419C35.0279 16.0638 34.3536 13.4462 33.6001 10.7095C33.2523 9.3896 32.5393 8.19455 31.5431 7.26149C30.5469 6.32843 29.3078 5.69518 27.9681 5.43443C26.4425 5.10851 24.8528 5.27461 23.4276 5.90885C22.0023 6.54309 20.8148 7.61283 20.0357 8.96435C19.6858 9.63774 19.0888 10.1495 18.3699 10.3922C17.8671 10.5464 17.3296 10.5456 16.8273 10.39C16.3251 10.2344 15.8813 9.93107 15.5538 9.51961C15.2383 9.0954 15.068 8.5808 15.068 8.05212C15.068 7.52344 15.2383 7.00884 15.5538 6.58463C16.3965 5.0076 17.5699 3.63121 18.9938 2.54964C20.4176 1.46807 22.0583 0.706838 23.8035 0.318032C27.088 -0.425354 30.533 0.146134 33.4016 1.91024C36.2701 3.67435 38.3343 6.49098 39.1527 9.75759C39.6683 11.7803 40.2236 13.7238 40.7392 15.7862C40.7392 16.2225 41.0168 16.3018 41.4135 16.1828L44.983 15.2309C45.3328 15.0981 45.7067 15.0407 46.0802 15.0624C46.4537 15.084 46.8184 15.1843 47.1504 15.3567C47.4825 15.529 47.7744 15.7695 48.0071 16.0625C48.2398 16.3554 48.408 16.6942 48.5007 17.0567C48.5935 17.4191 48.6086 17.7971 48.5452 18.1658C48.4817 18.5345 48.3412 18.8856 48.1327 19.1963C47.9242 19.5069 47.6524 19.77 47.3352 19.9684C47.018 20.1667 46.6625 20.2959 46.2919 20.3473L41.4135 21.6562C41.2061 21.6812 41.009 21.7603 40.8419 21.8856C40.6748 22.0109 40.5436 22.178 40.4616 22.3701L36.773 28.597C36.773 28.597 36.773 28.954 36.4557 29.1523H44.3881C44.6697 29.1424 44.9378 29.0295 45.1417 28.835C47.0851 26.9312 49.1079 24.8688 50.8927 23.084C51.9056 22.1136 52.6139 20.8691 52.9309 19.5026C53.2478 18.1361 53.1598 16.7068 52.6775 15.3896C52.2881 14.09 51.5497 12.9221 50.5427 12.013C49.5357 11.1039 48.2986 10.4884 46.9661 10.2335C46.5308 10.1941 46.0927 10.1941 45.6573 10.2335C45.2838 10.2794 44.9048 10.2455 44.5454 10.1339C44.186 10.0223 43.8544 9.83566 43.5725 9.58631C43.2907 9.33696 43.065 9.03059 42.9104 8.68748C42.7558 8.34436 42.6759 7.97233 42.6759 7.59601C42.6759 7.21968 42.7558 6.84765 42.9104 6.50454C43.065 6.16142 43.2907 5.85505 43.5725 5.6057C43.8544 5.35635 44.186 5.16971 44.5454 5.05814C44.9048 4.94656 45.2838 4.9126 45.6573 4.95849C48.2089 4.95549 50.704 5.70987 52.8266 7.12605C54.9491 8.54223 56.6036 10.5565 57.5805 12.9137C58.5574 15.271 58.8127 17.8651 58.314 20.3675C57.8154 22.87 56.5853 25.1681 54.7796 26.9709L50.1391 31.532L49.9011 32.0476L50.2184 32.4046L52.8758 35.0619C53.3507 35.5505 53.6163 36.205 53.6163 36.8864C53.6163 37.5677 53.3507 38.2222 52.8758 38.7108C52.6363 38.9507 52.3519 39.141 52.0389 39.2708C51.7258 39.4006 51.3902 39.4674 51.0513 39.4674C50.7124 39.4674 50.3768 39.4006 50.0638 39.2708C49.7507 39.141 49.4663 38.9507 49.2269 38.7108L45.2607 34.7446C45.1045 34.603 44.9124 34.5069 44.7054 34.467H36.773C36.7826 34.599 36.7826 34.7316 36.773 34.8636L40.7392 41.5268C40.7879 41.6215 40.8551 41.7054 40.9369 41.7735C41.0186 41.8417 41.1133 41.8927 41.2152 41.9235C44.0312 42.677 46.8075 43.4703 49.6632 44.1445C50.6826 44.3489 51.7332 44.3413 52.7496 44.1221C53.766 43.9029 54.7264 43.4768 55.5709 42.8703C56.4155 42.2639 57.1262 41.49 57.6587 40.597C58.1913 39.704 58.5343 38.7109 58.6664 37.6796C58.868 35.9892 58.5203 34.2788 57.6749 32.8012C57.4966 32.4994 57.3797 32.1654 57.3311 31.8182C57.2824 31.4711 57.3029 31.1178 57.3914 30.7786C57.4799 30.4395 57.6346 30.1212 57.8466 29.8421C58.0586 29.5629 58.3238 29.3285 58.6268 29.1523C59.2483 28.8094 59.9799 28.7254 60.663 28.9184C61.3461 29.1115 61.9256 29.566 62.2757 30.1835C63.2969 31.9574 63.8824 33.9484 63.9841 35.9927C64.0857 38.037 63.7005 40.0762 62.8602 41.9426C62.02 43.809 60.7486 45.4493 59.1507 46.7285C57.5528 48.0076 55.6741 48.8892 53.669 49.3006C51.355 49.7328 48.9699 49.5828 46.7282 48.8643L41.5325 47.4761C41.1358 47.4761 40.9772 47.4761 40.8979 47.8331L39.946 51.4027C39.7925 51.9623 39.4627 52.4576 39.0054 52.8148C38.5481 53.1721 37.9877 53.3723 37.4076 53.3858C36.8292 53.3878 36.2665 53.1982 35.8073 52.8466C35.3481 52.495 35.0182 52.0012 34.8692 51.4423C34.7497 50.9471 34.7497 50.4305 34.8692 49.9352C35.2659 48.2694 35.7418 46.5639 36.1781 44.8585C36.2553 44.6677 36.2553 44.4543 36.1781 44.2635L31.9739 37.1244Z" fill="white"/>
</svg>
