<svg width="143" height="132" viewBox="0 0 143 132" fill="none" xmlns="http://www.w3.org/2000/svg">
<path d="M135.05 1L79.9585 41.7636L90.2032 17.7403L135.05 1Z" fill="#E17726" stroke="#E17726" stroke-width="0.25" stroke-linecap="round" stroke-linejoin="round"/>
<path d="M7.9751 1L62.5758 42.144L52.8219 17.7402L7.9751 1Z" fill="#E27625" stroke="#E27625" stroke-width="0.25" stroke-linecap="round" stroke-linejoin="round"/>
<path d="M115.214 95.517L100.555 117.91L131.943 126.552L140.934 96.0065L115.214 95.517Z" fill="#E27625" stroke="#E27625" stroke-width="0.25" stroke-linecap="round" stroke-linejoin="round"/>
<path d="M2.1438 96.0065L11.0804 126.552L42.4132 117.91L27.8094 95.517L2.1438 96.0065Z" fill="#E27625" stroke="#E27625" stroke-width="0.25" stroke-linecap="round" stroke-linejoin="round"/>
<path d="M40.7236 57.6882L32.0051 70.8414L63.0653 72.2545L62.0301 38.8284L40.7236 57.6882Z" fill="#E27625" stroke="#E27625" stroke-width="0.25" stroke-linecap="round" stroke-linejoin="round"/>
<path d="M102.299 57.6888L80.666 38.4485L79.9575 72.2551L111.018 70.842L102.299 57.6888Z" fill="#E27625" stroke="#E27625" stroke-width="0.25" stroke-linecap="round" stroke-linejoin="round"/>
<path d="M42.4138 117.91L61.2132 108.833L45.0295 96.2236L42.4138 117.91Z" fill="#E27625" stroke="#E27625" stroke-width="0.25" stroke-linecap="round" stroke-linejoin="round"/>
<path d="M81.811 108.833L100.556 117.91L97.9948 96.2236L81.811 108.833Z" fill="#E27625" stroke="#E27625" stroke-width="0.25" stroke-linecap="round" stroke-linejoin="round"/>
<path d="M100.556 117.91L81.811 108.834L83.3366 121.008L83.173 126.172L100.556 117.91Z" fill="#D5BFB2" stroke="#D5BFB2" stroke-width="0.25" stroke-linecap="round" stroke-linejoin="round"/>
<path d="M42.4138 117.91L59.8513 126.172L59.7422 121.008L61.2132 108.834L42.4138 117.91Z" fill="#D5BFB2" stroke="#D5BFB2" stroke-width="0.25" stroke-linecap="round" stroke-linejoin="round"/>
<path d="M60.1778 88.1798L44.593 83.6145L55.6003 78.5597L60.1778 88.1798Z" fill="#233447" stroke="#233447" stroke-width="0.25" stroke-linecap="round" stroke-linejoin="round"/>
<path d="M82.8464 88.1798L87.4239 78.5597L98.4857 83.6145L82.8464 88.1798Z" fill="#233447" stroke="#233447" stroke-width="0.25" stroke-linecap="round" stroke-linejoin="round"/>
<path d="M42.4132 117.91L45.138 95.517L27.8096 96.0065L42.4132 117.91Z" fill="#CC6228" stroke="#CC6228" stroke-width="0.25" stroke-linecap="round" stroke-linejoin="round"/>
<path d="M97.8855 95.517L100.556 117.91L115.214 96.0065L97.8855 95.517Z" fill="#CC6228" stroke="#CC6228" stroke-width="0.25" stroke-linecap="round" stroke-linejoin="round"/>
<path d="M111.018 70.8414L79.9575 72.2546L82.8455 88.1799L87.4229 78.5593L98.4847 83.6142L111.018 70.8414Z" fill="#CC6228" stroke="#CC6228" stroke-width="0.25" stroke-linecap="round" stroke-linejoin="round"/>
<path d="M44.5927 83.6142L55.5999 78.5593L60.1774 88.1799L63.0653 72.2546L32.0051 70.8414L44.5927 83.6142Z" fill="#CC6228" stroke="#CC6228" stroke-width="0.25" stroke-linecap="round" stroke-linejoin="round"/>
<path d="M32.0061 70.8414L45.0297 96.2237L44.5935 83.6142L32.0061 70.8414Z" fill="#E27525" stroke="#E27525" stroke-width="0.25" stroke-linecap="round" stroke-linejoin="round"/>
<path d="M98.4857 83.6142L97.9954 96.2237L111.019 70.8414L98.4857 83.6142Z" fill="#E27525" stroke="#E27525" stroke-width="0.25" stroke-linecap="round" stroke-linejoin="round"/>
<path d="M63.0673 72.2546L60.179 88.18L63.8299 106.985L64.6474 82.2011L63.0673 72.2546Z" fill="#E27525" stroke="#E27525" stroke-width="0.25" stroke-linecap="round" stroke-linejoin="round"/>
<path d="M79.9588 72.2546L78.4329 82.147L79.1958 106.985L82.8468 88.18L79.9588 72.2546Z" fill="#E27525" stroke="#E27525" stroke-width="0.25" stroke-linecap="round" stroke-linejoin="round"/>
<path d="M82.8465 88.1801L79.1956 106.985L81.8113 108.834L97.9954 96.2239L98.4857 83.6144L82.8465 88.1801Z" fill="#F5841F" stroke="#F5841F" stroke-width="0.25" stroke-linecap="round" stroke-linejoin="round"/>
<path d="M44.593 83.6144L45.0292 96.2239L61.213 108.834L63.8287 106.985L60.1778 88.1801L44.593 83.6144Z" fill="#F5841F" stroke="#F5841F" stroke-width="0.25" stroke-linecap="round" stroke-linejoin="round"/>
<path d="M83.1736 126.172L83.3368 121.008L81.9203 119.812H61.1046L59.7422 121.008L59.8513 126.172L42.4138 117.91L48.5168 122.91L60.8865 131.444H82.0835L94.5077 122.91L100.556 117.91L83.1736 126.172Z" fill="#C0AC9D" stroke="#C0AC9D" stroke-width="0.25" stroke-linecap="round" stroke-linejoin="round"/>
<path d="M81.811 108.833L79.1953 106.985H63.8287L61.2134 108.833L59.7419 121.008L61.1043 119.812H81.92L83.337 121.008L81.811 108.833Z" fill="#161616" stroke="#161616" stroke-width="0.25" stroke-linecap="round" stroke-linejoin="round"/>
<path d="M137.392 44.4267L142.024 21.9253L135.049 1L81.811 40.405L102.3 57.6885L131.235 66.1132L137.61 58.6671L134.831 56.6558L139.245 52.6341L135.867 50.0251L140.281 46.6552L137.392 44.4267Z" fill="#763E1A" stroke="#763E1A" stroke-width="0.25" stroke-linecap="round" stroke-linejoin="round"/>
<path d="M1 21.9253L5.68629 44.4267L2.68926 46.6552L7.15755 50.0251L3.77908 52.6341L8.19289 56.6558L5.41381 58.6671L11.7894 66.1132L40.7246 57.6885L61.2132 40.405L7.97494 1L1 21.9253Z" fill="#763E1A" stroke="#763E1A" stroke-width="0.25" stroke-linecap="round" stroke-linejoin="round"/>
<path d="M131.235 66.1129L102.3 57.6886L111.019 70.8418L97.9954 96.2237L115.215 96.0064H140.935L131.235 66.1129Z" fill="#F5841F" stroke="#F5841F" stroke-width="0.25" stroke-linecap="round" stroke-linejoin="round"/>
<path d="M40.7237 57.6886L11.7888 66.1129L2.1438 96.0064H27.8094L45.0285 96.2237L32.0052 70.8418L40.7237 57.6886Z" fill="#F5841F" stroke="#F5841F" stroke-width="0.25" stroke-linecap="round" stroke-linejoin="round"/>
<path d="M79.9579 72.2547L81.8106 40.4045L90.2022 17.7401H52.821L61.2126 40.4045L63.0653 72.2547L63.7738 82.2553L63.8283 106.985H79.1949L79.2495 82.2553L79.9579 72.2547Z" fill="#F5841F" stroke="#F5841F" stroke-width="0.25" stroke-linecap="round" stroke-linejoin="round"/>
</svg>
