<svg width="22" height="22" viewBox="0 0 22 22" fill="none" xmlns="http://www.w3.org/2000/svg">
<path d="M18.5 14.5505V13C18.4994 12.3371 18.2358 11.7016 17.7671 11.2329C17.2984 10.7642 16.6629 10.5006 16 10.5H11.5V7.44946C12.3758 7.32305 13.1712 6.86961 13.7262 6.18038C14.2811 5.49116 14.5544 4.61731 14.491 3.73472C14.4277 2.85212 14.0323 2.02628 13.3846 1.4234C12.7369 0.820524 11.8849 0.485359 11 0.485359C10.1151 0.485359 9.26311 0.820524 8.61539 1.4234C7.96768 2.02628 7.57236 2.85212 7.50899 3.73472C7.44562 4.61731 7.71891 5.49116 8.27386 6.18038C8.8288 6.86961 9.62421 7.32305 10.5 7.44946V10.5H6.00001C5.33718 10.5007 4.7017 10.7643 4.23301 11.233C3.76432 11.7017 3.5007 12.3372 3.50001 13V14.5505C2.62421 14.677 1.8288 15.1304 1.27386 15.8196C0.718913 16.5088 0.445624 17.3827 0.508992 18.2653C0.57236 19.1479 0.96768 19.9737 1.61539 20.5766C2.26311 21.1795 3.11514 21.5146 4.00001 21.5146C4.88488 21.5146 5.7369 21.1795 6.38462 20.5766C7.03233 19.9737 7.42765 19.1479 7.49102 18.2653C7.55439 17.3827 7.2811 16.5088 6.72615 15.8196C6.17121 15.1304 5.3758 14.677 4.50001 14.5505V13C4.50044 12.6023 4.65861 12.221 4.93983 11.9398C5.22104 11.6586 5.60231 11.5004 6.00001 11.5H16C16.3977 11.5004 16.779 11.6586 17.0602 11.9398C17.3414 12.221 17.4996 12.6023 17.5 13V14.5505C16.6242 14.677 15.8288 15.1304 15.2739 15.8196C14.7189 16.5088 14.4456 17.3827 14.509 18.2653C14.5724 19.1479 14.9677 19.9737 15.6154 20.5766C16.2631 21.1795 17.1151 21.5146 18 21.5146C18.8849 21.5146 19.7369 21.1795 20.3846 20.5766C21.0323 19.9737 21.4277 19.1479 21.491 18.2653C21.5544 17.3827 21.2811 16.5088 20.7262 15.8196C20.1712 15.1304 19.3758 14.677 18.5 14.5505ZM6.50001 18C6.50001 18.4945 6.35338 18.9778 6.07868 19.3889C5.80398 19.8 5.41353 20.1205 4.95671 20.3097C4.4999 20.4989 3.99723 20.5484 3.51228 20.452C3.02733 20.3555 2.58187 20.1174 2.23224 19.7678C1.88261 19.4181 1.64451 18.9727 1.54804 18.4877C1.45158 18.0028 1.50109 17.5001 1.69031 17.0433C1.87953 16.5865 2.19996 16.196 2.61108 15.9213C3.0222 15.6466 3.50555 15.5 4.00001 15.5C4.66283 15.5007 5.29831 15.7643 5.767 16.233C6.23569 16.7017 6.49931 17.3372 6.50001 18ZM8.50001 4C8.50001 3.50555 8.64663 3.0222 8.92133 2.61108C9.19604 2.19995 9.58648 1.87952 10.0433 1.6903C10.5001 1.50108 11.0028 1.45157 11.4877 1.54804C11.9727 1.6445 12.4181 1.8826 12.7678 2.23223C13.1174 2.58187 13.3555 3.02732 13.452 3.51228C13.5484 3.99723 13.4989 4.49989 13.3097 4.95671C13.1205 5.41352 12.8001 5.80397 12.3889 6.07867C11.9778 6.35338 11.4945 6.5 11 6.5C10.3372 6.4993 9.7017 6.23569 9.23301 5.767C8.76432 5.29831 8.5007 4.66283 8.50001 4ZM18 20.5C17.5056 20.5 17.0222 20.3534 16.6111 20.0787C16.2 19.804 15.8795 19.4135 15.6903 18.9567C15.5011 18.4999 15.4516 17.9972 15.548 17.5123C15.6445 17.0273 15.8826 16.5819 16.2322 16.2322C16.5819 15.8826 17.0273 15.6445 17.5123 15.548C17.9972 15.4516 18.4999 15.5011 18.9567 15.6903C19.4135 15.8795 19.804 16.2 20.0787 16.6111C20.3534 17.0222 20.5 17.5055 20.5 18C20.4994 18.6629 20.2358 19.2984 19.7671 19.7671C19.2984 20.2358 18.6629 20.4994 18 20.5Z" fill="#AAAAAA"/>
</svg>
