<svg width="24" height="22" viewBox="0 0 24 22" fill="none" xmlns="http://www.w3.org/2000/svg">
<path d="M0.916748 1.66671C0.916748 1.31671 1.15008 1.08337 1.50008 1.08337C1.85008 1.08337 2.08341 1.31671 2.08341 1.66671V18C2.08341 18.9334 2.90008 19.75 3.83341 19.75H22.5001C22.8501 19.75 23.0834 19.9834 23.0834 20.3334C23.0834 20.6834 22.8501 20.9167 22.5001 20.9167H3.83341C2.20008 20.9167 0.916748 19.6334 0.916748 18V1.66671ZM20.8667 8.20004L16.6667 12.5167L11.1834 8.20004C10.9501 7.96671 10.6001 8.08338 10.3667 8.20004L5.70008 12.8667C5.46675 13.1 5.46675 13.45 5.70008 13.6834C5.93341 13.9167 6.28341 13.9167 6.51675 13.6834L10.8334 9.36671L16.3167 13.6834C16.5501 13.9167 16.9001 13.8 17.1334 13.6834L21.8001 9.01671C22.0334 8.78338 22.0334 8.43338 21.8001 8.20004C21.4501 8.08338 21.1001 8.08338 20.8667 8.20004Z" fill="#00C6ED" stroke="#00C6ED" stroke-width="1.5" stroke-miterlimit="10"/>
</svg>
