<svg width="20" height="20" viewBox="0 0 20 20" fill="none" xmlns="http://www.w3.org/2000/svg">
<path d="M1.5 2.98876C1.5005 2.90695 1.50753 2.82531 1.521 2.74462C1.59766 2.38423 1.79843 2.06221 2.08828 1.83473C2.37813 1.60726 2.73865 1.48879 3.10693 1.49999H17C17.1326 1.49999 17.2598 1.44731 17.3536 1.35355C17.4473 1.25978 17.5 1.1326 17.5 0.999992C17.5 0.867383 17.4473 0.740207 17.3536 0.646438C17.2598 0.55267 17.1326 0.499992 17 0.499992H3.10693C2.50169 0.490353 1.91232 0.693809 1.44192 1.07477C0.971522 1.45574 0.650034 1.98996 0.53369 2.58399C0.512722 2.71317 0.501623 2.84376 0.50049 2.97462L0.5 2.99999V17C0.500778 17.6628 0.76442 18.2982 1.23309 18.7669C1.70176 19.2356 2.3372 19.4992 3 19.5H17C17.6628 19.4992 18.2982 19.2356 18.7669 18.7669C19.2356 18.2982 19.4992 17.6628 19.5 17V6.99999C19.4992 6.33719 19.2356 5.70176 18.7669 5.23308C18.2982 4.76441 17.6628 4.50077 17 4.49999H3C2.78251 4.50006 2.56762 4.45279 2.37023 4.36147C2.17284 4.27016 1.99769 4.13698 1.85693 3.97118C1.63076 3.70731 1.50443 3.3724 1.5 3.02489V2.98876ZM3 5.49999H17C17.3977 5.50043 17.779 5.6586 18.0602 5.93981C18.3414 6.22102 18.4996 6.6023 18.5 6.99999V17C18.4996 17.3977 18.3414 17.779 18.0602 18.0602C17.779 18.3414 17.3977 18.4996 17 18.5H3C2.60231 18.4996 2.22103 18.3414 1.93982 18.0602C1.65861 17.779 1.50043 17.3977 1.5 17V4.99999C1.93251 5.32499 2.45899 5.50049 3 5.49999ZM13 14.5C13.4945 14.5 13.9778 14.3534 14.3889 14.0787C14.8 13.804 15.1205 13.4135 15.3097 12.9567C15.4989 12.4999 15.5484 11.9972 15.452 11.5123C15.3555 11.0273 15.1174 10.5819 14.7678 10.2322C14.4181 9.88259 13.9727 9.64449 13.4877 9.54803C13.0028 9.45156 12.5001 9.50107 12.0433 9.69029C11.5865 9.87951 11.196 10.1999 10.9213 10.6111C10.6466 11.0222 10.5 11.5055 10.5 12C10.5008 12.6628 10.7644 13.2982 11.2331 13.7669C11.7018 14.2356 12.3372 14.4992 13 14.5ZM13 10.5C13.2967 10.5 13.5867 10.588 13.8334 10.7528C14.08 10.9176 14.2723 11.1519 14.3858 11.426C14.4993 11.7001 14.5291 12.0017 14.4712 12.2926C14.4133 12.5836 14.2704 12.8509 14.0607 13.0607C13.8509 13.2704 13.5836 13.4133 13.2926 13.4712C13.0017 13.529 12.7001 13.4993 12.426 13.3858C12.1519 13.2723 11.9176 13.08 11.7528 12.8333C11.588 12.5867 11.5 12.2967 11.5 12C11.5004 11.6023 11.6586 11.221 11.9398 10.9398C12.221 10.6586 12.6023 10.5004 13 10.5Z" fill="white"/>
</svg>
