<svg width="24" height="24" viewBox="0 0 24 24" fill="none" xmlns="http://www.w3.org/2000/svg">
<path d="M20.6667 0.625H3.33333C2.61527 0.625754 1.92683 0.911338 1.41909 1.41909C0.911338 1.92683 0.625754 2.61527 0.625 3.33333V12C0.625754 12.7181 0.911338 13.4065 1.41909 13.9142C1.92683 14.422 2.61527 14.7076 3.33333 14.7083H20.6667C21.3848 14.7077 22.0732 14.4221 22.581 13.9143C23.0888 13.4066 23.3743 12.7181 23.375 12V3.33333C23.3743 2.61524 23.0888 1.92675 22.581 1.41898C22.0732 0.911217 21.3848 0.625663 20.6667 0.625ZM22.2917 12C22.2912 12.4308 22.1198 12.8439 21.8152 13.1485C21.5106 13.4532 21.0975 13.6245 20.6667 13.625H3.33333C2.9025 13.6245 2.48945 13.4532 2.1848 13.1485C1.88016 12.8439 1.7088 12.4308 1.70833 12V3.33333C1.7088 2.9025 1.88016 2.48945 2.1848 2.1848C2.48945 1.88016 2.9025 1.7088 3.33333 1.70833H20.6667C21.0975 1.7088 21.5106 1.88016 21.8152 2.1848C22.1198 2.48945 22.2912 2.9025 22.2917 3.33333V12ZM12 4.95833C11.4643 4.95833 10.9407 5.11717 10.4953 5.41477C10.0499 5.71237 9.70281 6.13535 9.49783 6.63023C9.29284 7.12512 9.23921 7.66967 9.34371 8.19504C9.44821 8.7204 9.70615 9.20298 10.0849 9.58175C10.4637 9.96052 10.9463 10.2185 11.4716 10.323C11.997 10.4275 12.5416 10.3738 13.0364 10.1688C13.5313 9.96385 13.9543 9.61672 14.2519 9.17134C14.5495 8.72595 14.7083 8.20232 14.7083 7.66667C14.7076 6.9486 14.422 6.26017 13.9142 5.75242C13.4065 5.24467 12.7181 4.95909 12 4.95833ZM12 9.29167C11.6786 9.29167 11.3644 9.19636 11.0972 9.01781C10.83 8.83925 10.6217 8.58546 10.4987 8.28853C10.3757 7.9916 10.3435 7.66486 10.4062 7.34965C10.4689 7.03443 10.6237 6.74488 10.851 6.51762C11.0782 6.29036 11.3678 6.13559 11.683 6.07289C11.9982 6.01019 12.3249 6.04237 12.6219 6.16536C12.9188 6.28835 13.1726 6.49664 13.3511 6.76386C13.5297 7.0311 13.625 7.34527 13.625 7.66667C13.6245 8.0975 13.4532 8.51055 13.1485 8.8152C12.8439 9.11984 12.4308 9.2912 12 9.29167ZM20.125 7.66667C20.125 7.73781 20.1111 7.80827 20.0839 7.874C20.0566 7.93974 20.0167 7.99947 19.9664 8.04978C19.9161 8.10008 19.8564 8.13998 19.7907 8.16719C19.7249 8.19439 19.6545 8.20837 19.5833 8.20833H17.4167C17.273 8.20833 17.1352 8.15127 17.0337 8.04968C16.9321 7.9481 16.875 7.81033 16.875 7.66667C16.875 7.52301 16.9321 7.38523 17.0337 7.28365C17.1352 7.18207 17.273 7.125 17.4167 7.125H19.5833C19.6545 7.12496 19.7249 7.13894 19.7907 7.16615C19.8564 7.19335 19.9161 7.23325 19.9664 7.28356C20.0167 7.33387 20.0566 7.39359 20.0839 7.45933C20.1111 7.52507 20.125 7.59552 20.125 7.66667ZM7.125 7.66667C7.12504 7.73781 7.11106 7.80827 7.08385 7.874C7.05665 7.93974 7.01675 7.99947 6.96644 8.04978C6.91614 8.10008 6.85641 8.13998 6.79067 8.16719C6.72493 8.19439 6.65448 8.20837 6.58333 8.20833H4.41667C4.27301 8.20833 4.13523 8.15127 4.03365 8.04968C3.93207 7.9481 3.875 7.81033 3.875 7.66667C3.875 7.52301 3.93207 7.38523 4.03365 7.28365C4.13523 7.18207 4.27301 7.125 4.41667 7.125H6.58333C6.65448 7.12496 6.72493 7.13894 6.79067 7.16615C6.85641 7.19335 6.91614 7.23325 6.96644 7.28356C7.01675 7.33387 7.05665 7.39359 7.08385 7.45933C7.11106 7.52507 7.12504 7.59552 7.125 7.66667ZM22.2917 16.0111C22.6831 15.8471 23.0481 15.6262 23.375 15.3555V16.3333C23.3743 17.0514 23.0888 17.7399 22.581 18.2477C22.0732 18.7555 21.3848 19.041 20.6667 19.0417H3.33333C2.61527 19.0409 1.92683 18.7553 1.41909 18.2476C0.911338 17.7398 0.625754 17.0514 0.625 16.3333V15.3553C0.951856 15.6261 1.31691 15.847 1.70833 16.0111V16.3333C1.7088 16.7642 1.88016 17.1772 2.1848 17.4819C2.48945 17.7865 2.9025 17.9579 3.33333 17.9583H20.6667C21.0975 17.9579 21.5106 17.7865 21.8152 17.4819C22.1198 17.1772 22.2912 16.7642 22.2917 16.3333V16.0111ZM22.2917 20.3445C22.6831 20.1805 23.0481 19.9596 23.375 19.6889V20.6667C23.3743 21.3848 23.0888 22.0732 22.581 22.581C22.0732 23.0888 21.3848 23.3743 20.6667 23.375H3.33333C2.61527 23.3742 1.92683 23.0887 1.41909 22.5809C0.911338 22.0732 0.625754 21.3847 0.625 20.6667V19.6887C0.951856 19.9594 1.31691 20.1803 1.70833 20.3444V20.6667C1.7088 21.0975 1.88016 21.5106 2.1848 21.8152C2.48945 22.1198 2.9025 22.2912 3.33333 22.2917H20.6667C21.0975 22.2912 21.5106 22.1198 21.8152 21.8152C22.1198 21.5106 22.2912 21.0975 22.2917 20.6667V20.3445Z" fill="#00C6ED"/>
</svg>
