<svg width="23" height="21" viewBox="0 0 23 21" fill="none" xmlns="http://www.w3.org/2000/svg">
<path d="M0.8125 1.5C0.8125 1.35082 0.871763 1.20774 0.977253 1.10225C1.08274 0.996763 1.22582 0.9375 1.375 0.9375C1.52418 0.9375 1.66726 0.996763 1.77275 1.10225C1.87824 1.20774 1.9375 1.35082 1.9375 1.5V17.25C1.93799 17.6974 2.11593 18.1263 2.4323 18.4427C2.74866 18.7591 3.1776 18.937 3.625 18.9375H21.625C21.7742 18.9375 21.9173 18.9968 22.0227 19.1023C22.1282 19.2077 22.1875 19.3508 22.1875 19.5C22.1875 19.6492 22.1282 19.7923 22.0227 19.8977C21.9173 20.0032 21.7742 20.0625 21.625 20.0625H3.625C2.87935 20.0616 2.16449 19.765 1.63723 19.2378C1.10997 18.7105 0.813375 17.9957 0.8125 17.25V1.5ZM20.1023 7.85229L15.9583 11.9963L10.7266 7.81055C10.6184 7.72413 10.4822 7.68061 10.344 7.68831C10.2057 7.69601 10.0752 7.75439 9.97731 7.85229L5.47731 12.3523C5.37485 12.4584 5.31815 12.6005 5.31943 12.748C5.32071 12.8954 5.37987 13.0365 5.48416 13.1408C5.58846 13.2451 5.72954 13.3043 5.87702 13.3055C6.02451 13.3068 6.1666 13.2501 6.27269 13.1477L10.4167 9.00361L15.6484 13.1894C15.7566 13.2758 15.8928 13.3193 16.031 13.3116C16.1692 13.3039 16.2998 13.2455 16.3977 13.1477L20.8977 8.64767C21.0001 8.54158 21.0568 8.39949 21.0555 8.252C21.0543 8.10452 20.9951 7.96343 20.8908 7.85914C20.7865 7.75485 20.6454 7.69569 20.498 7.69441C20.3505 7.69313 20.2084 7.74983 20.1023 7.85229Z" fill="#00C6ED"/>
</svg>
