<svg width="24" height="25" viewBox="0 0 24 25" fill="none" xmlns="http://www.w3.org/2000/svg">
<path d="M22.2057 9.0646C21.944 8.86348 21.7435 8.5877 21.6285 8.27046C21.5134 7.95323 21.4887 7.60806 21.5573 7.2765C21.6623 6.62537 21.6165 5.95748 21.4239 5.32854C21.2312 4.69959 20.8973 4.12784 20.4498 3.66094C20.0024 3.19405 19.4544 2.84557 18.8517 2.64455C18.249 2.44353 17.6089 2.3958 16.9849 2.50535C16.6671 2.57721 16.3361 2.55144 16.032 2.43116C15.7279 2.31087 15.4637 2.10123 15.2713 1.82758C14.9079 1.26481 14.4175 0.80383 13.8434 0.485157C13.2692 0.166484 12.6288 -0.000117508 11.9785 6.21832e-08C11.3281 0.000117632 10.6878 0.166951 10.1137 0.485831C9.53966 0.804711 9.04946 1.26587 8.68623 1.82877C8.49325 2.1013 8.22912 2.31005 7.92543 2.43004C7.62174 2.55004 7.29135 2.5762 6.97378 2.50539C6.34973 2.39565 5.70957 2.44323 5.10673 2.64418C4.50388 2.84512 3.95584 3.19359 3.50832 3.66052C3.0608 4.12745 2.72678 4.69929 2.53415 5.32833C2.34151 5.95736 2.29584 6.62535 2.40094 7.27655C2.46964 7.60811 2.44498 7.95332 2.32993 8.27058C2.21488 8.58784 2.01435 8.8636 1.75252 9.06465C1.21301 9.4436 0.771015 9.9551 0.465421 10.5541C0.159827 11.1532 0 11.8214 0 12.5C0 13.1787 0.159827 13.8469 0.465421 14.446C0.771015 15.045 1.21301 15.5565 1.75252 15.9354C2.01435 16.1365 2.21488 16.4123 2.32993 16.7295C2.44498 17.0468 2.46964 17.392 2.40094 17.7235C2.29597 18.3747 2.34172 19.0426 2.53437 19.6715C2.72703 20.3004 3.061 20.8722 3.50844 21.3391C3.95588 21.806 4.50381 22.1544 5.10654 22.3555C5.70927 22.5565 6.34933 22.6042 6.97333 22.4946C7.29117 22.4239 7.62181 22.4502 7.92569 22.5704C8.22958 22.6906 8.49386 22.8996 8.68691 23.1724C9.05033 23.7352 9.54068 24.1962 10.1149 24.5148C10.689 24.8335 11.3294 25.0001 11.9798 25C12.6301 24.9999 13.2704 24.833 13.8445 24.5142C14.4186 24.1953 14.9088 23.7341 15.272 23.1712C15.4647 22.8984 15.7288 22.6894 16.0326 22.5694C16.3364 22.4494 16.6669 22.4234 16.9844 22.4946C17.6085 22.6044 18.2487 22.5568 18.8515 22.3559C19.4544 22.1549 20.0025 21.8065 20.45 21.3395C20.8975 20.8726 21.2316 20.3007 21.4242 19.6717C21.6168 19.0426 21.6625 18.3746 21.5574 17.7234C21.4887 17.3919 21.5134 17.0466 21.6284 16.7294C21.7435 16.4121 21.944 16.1364 22.2058 15.9353C22.7453 15.5564 23.1873 15.0449 23.4929 14.4458C23.7985 13.8468 23.9583 13.1785 23.9583 12.4999C23.9583 11.8213 23.7985 11.1531 23.4929 10.554C23.1873 9.95497 22.7453 9.44347 22.2058 9.06452L22.2057 9.0646ZM21.5673 14.9495C21.123 15.2767 20.7791 15.7314 20.5776 16.2584C20.3761 16.7855 20.3255 17.3623 20.432 17.9188C20.5072 18.3831 20.4748 18.8594 20.3376 19.308C20.2004 19.7566 19.9623 20.1644 19.6432 20.4973C19.3241 20.8303 18.9333 21.0787 18.5034 21.2219C18.0735 21.3651 17.617 21.3989 17.1721 21.3204C16.6388 21.2092 16.086 21.262 15.5809 21.4723C15.0758 21.6826 14.64 22.0414 14.3266 22.5051C14.0678 22.9066 13.7184 23.2355 13.3091 23.4629C12.8999 23.6904 12.4434 23.8094 11.9797 23.8095C11.516 23.8097 11.0594 23.6909 10.6501 23.4636C10.2407 23.2364 9.8912 22.9076 9.6322 22.5063C9.37442 22.1177 9.02842 21.8018 8.62512 21.5868C8.22182 21.3717 7.77376 21.2643 7.32095 21.2739C7.14158 21.274 6.96253 21.2896 6.78561 21.3204C6.34071 21.3987 5.88433 21.3648 5.45456 21.2215C5.02479 21.0782 4.6341 20.8298 4.3151 20.4968C3.9961 20.1639 3.75804 19.7562 3.62081 19.3077C3.48358 18.8592 3.45115 18.383 3.52623 17.9188C3.63273 17.3623 3.58215 16.7855 3.38062 16.2584C3.17909 15.7314 2.83529 15.2767 2.39093 14.9495C2.00612 14.6794 1.69085 14.3147 1.47287 13.8876C1.25489 13.4605 1.14088 12.9839 1.14088 12.5C1.14088 12.0161 1.25489 11.5395 1.47287 11.1124C1.69085 10.6853 2.00612 10.3206 2.39093 10.0505C2.83529 9.72332 3.17909 9.26862 3.38062 8.74156C3.58215 8.21449 3.63273 7.63772 3.52623 7.08124C3.45104 6.61694 3.4834 6.14061 3.62063 5.69203C3.75786 5.24345 3.99596 4.83565 4.31505 4.50268C4.63414 4.16972 5.02495 3.92126 5.45483 3.77807C5.88472 3.63487 6.34121 3.60109 6.78616 3.67956C7.31945 3.79078 7.87221 3.73804 8.37733 3.52774C8.88245 3.31744 9.31819 2.95864 9.63164 2.49489C9.89045 2.09344 10.2398 1.76452 10.6491 1.53706C11.0583 1.3096 11.5149 1.19058 11.9785 1.19046C12.4422 1.19034 12.8988 1.30913 13.3081 1.53639C13.7175 1.76364 14.067 2.09238 14.326 2.4937C14.6395 2.95782 15.0753 3.31696 15.5807 3.52747C16.086 3.73798 16.6391 3.7908 17.1726 3.67952C17.6175 3.60126 18.0739 3.63518 18.5037 3.77846C18.9335 3.92173 19.3241 4.1702 19.6431 4.50313C19.9621 4.83606 20.2002 5.24378 20.3374 5.69227C20.4747 6.14075 20.5071 6.61698 20.432 7.08121C20.3255 7.63769 20.3761 8.21446 20.5776 8.74152C20.7791 9.26859 21.123 9.72328 21.5673 10.0504C21.9521 10.3205 22.2674 10.6852 22.4854 11.1124C22.7034 11.5395 22.8174 12.016 22.8174 12.5C22.8174 12.9839 22.7034 13.4604 22.4854 13.8876C22.2674 14.3147 21.9521 14.6794 21.5673 14.9495V14.9495ZM15.9722 14.5833C15.9713 15.2935 15.7006 15.9743 15.2194 16.4764C14.7382 16.9785 14.0857 17.261 13.4052 17.2619H12.5495V18.4524C12.5495 18.6102 12.4895 18.7616 12.3825 18.8733C12.2755 18.9849 12.1304 19.0476 11.9791 19.0476C11.8278 19.0476 11.6827 18.9849 11.5758 18.8733C11.4688 18.7616 11.4087 18.6102 11.4087 18.4524V17.2619H9.12694C8.97566 17.2619 8.83056 17.1992 8.72359 17.0876C8.61661 16.9759 8.55651 16.8245 8.55651 16.6667C8.55651 16.5088 8.61661 16.3574 8.72359 16.2458C8.83056 16.1341 8.97566 16.0714 9.12694 16.0714H13.4052C13.7834 16.0714 14.1462 15.9146 14.4136 15.6356C14.681 15.3565 14.8313 14.978 14.8313 14.5833C14.8313 14.1887 14.681 13.8102 14.4136 13.5311C14.1462 13.252 13.7834 13.0952 13.4052 13.0952H10.553C9.87223 13.0952 9.21932 12.813 8.73792 12.3107C8.25652 11.8084 7.98608 11.1271 7.98608 10.4167C7.98608 9.70627 8.25652 9.02496 8.73792 8.52263C9.21932 8.02031 9.87223 7.7381 10.553 7.7381H11.4087V6.54762C11.4087 6.38976 11.4688 6.23836 11.5758 6.12673C11.6827 6.0151 11.8278 5.95239 11.9791 5.95239C12.1304 5.95239 12.2755 6.0151 12.3825 6.12673C12.4895 6.23836 12.5495 6.38976 12.5495 6.54762V7.7381H14.8313C14.9826 7.7381 15.1277 7.80081 15.2346 7.91244C15.3416 8.02407 15.4017 8.17547 15.4017 8.33334C15.4017 8.4912 15.3416 8.64261 15.2346 8.75423C15.1277 8.86586 14.9826 8.92857 14.8313 8.92857H10.553C10.1748 8.92857 9.81208 9.08536 9.54463 9.36443C9.27719 9.6435 9.12694 10.022 9.12694 10.4167C9.12694 10.8113 9.27719 11.1898 9.54463 11.4689C9.81208 11.748 10.1748 11.9048 10.553 11.9048H13.4052C14.0857 11.9056 14.7382 12.1881 15.2194 12.6903C15.7006 13.1924 15.9713 13.8732 15.9722 14.5833Z" fill="#00C6ED"/>
</svg>
