<svg width="22" height="24" viewBox="0 0 22 24" fill="none" xmlns="http://www.w3.org/2000/svg">
<path d="M10.9999 12.5417C12.1784 12.5417 13.3303 12.1922 14.3102 11.5375C15.29 10.8828 16.0537 9.95224 16.5047 8.86349C16.9557 7.77475 17.0737 6.57673 16.8438 5.42092C16.6139 4.26512 16.0464 3.20345 15.2131 2.37016C14.3798 1.53687 13.3181 0.969394 12.1623 0.73949C11.0065 0.509587 9.80851 0.627582 8.71976 1.07855C7.63102 1.52953 6.70046 2.29322 6.04574 3.27306C5.39104 4.25291 5.04158 5.40489 5.04158 6.58334C5.04346 8.16301 5.67181 9.67745 6.78881 10.7944C7.90581 11.9114 9.42025 12.5398 10.9999 12.5417ZM10.9999 1.70834C11.9641 1.70834 12.9066 1.99425 13.7083 2.52992C14.51 3.06559 15.1349 3.82696 15.5038 4.71775C15.8728 5.60854 15.9693 6.58874 15.7812 7.5344C15.5931 8.48006 15.1288 9.3487 14.4471 10.0305C13.7653 10.7123 12.8966 11.1766 11.951 11.3647C11.0053 11.5528 10.0251 11.4562 9.13434 11.0872C8.24355 10.7183 7.48218 10.0934 6.9465 9.29174C6.41083 8.49005 6.12492 7.54752 6.12492 6.58334C6.12633 5.29084 6.64039 4.05168 7.55433 3.13775C8.46826 2.22381 9.70742 1.70974 10.9999 1.70834ZM5.58325 15.7917H16.4166C17.7091 15.7931 18.9482 16.3071 19.8622 17.2211C20.7761 18.135 21.2902 19.3742 21.2916 20.6667V22.8333C21.2916 22.977 21.2345 23.1148 21.1329 23.2164C21.0314 23.3179 20.8936 23.375 20.7499 23.375C20.6063 23.375 20.4685 23.3179 20.3669 23.2164C20.2653 23.1148 20.2083 22.977 20.2083 22.8333V20.6667C20.207 19.6614 19.8072 18.6977 19.0964 17.9869C18.3855 17.2761 17.4218 16.8762 16.4166 16.875H5.58325C4.57801 16.8762 3.61429 17.2761 2.90348 17.9869C2.19267 18.6977 1.7928 19.6614 1.79159 20.6667V22.8333C1.79159 22.977 1.73452 23.1148 1.63293 23.2164C1.53135 23.3179 1.39358 23.375 1.24992 23.375C1.10626 23.375 0.968485 23.3179 0.866903 23.2164C0.76532 23.1148 0.708252 22.977 0.708252 22.8333V20.6667C0.70966 19.3742 1.22373 18.135 2.13766 17.2211C3.0516 16.3071 4.29075 15.7931 5.58325 15.7917Z" fill="#00C6ED"/>
</svg>
