<svg width="24" height="24" viewBox="0 0 24 24" fill="none" xmlns="http://www.w3.org/2000/svg">
<path d="M0.625003 12C0.62349 9.73962 1.2959 7.53012 2.55631 5.65378C3.81672 3.77744 5.60791 2.31946 7.70102 1.46613C9.79414 0.612802 12.0941 0.402865 14.3071 0.863142C16.5202 1.32342 18.5457 2.43301 20.125 4.05015V1.16666C20.125 1.023 20.1821 0.885228 20.2837 0.783646C20.3852 0.682064 20.523 0.624995 20.6667 0.624995C20.8103 0.624995 20.9481 0.682064 21.0497 0.783646C21.1513 0.885228 21.2083 1.023 21.2083 1.16666V5.49477L21.2094 5.5C21.2095 5.57114 21.1955 5.64159 21.1683 5.70733C21.1411 5.77307 21.1012 5.83279 21.0509 5.8831C21.0006 5.93341 20.9408 5.9733 20.8751 6.00051C20.8094 6.02772 20.7389 6.0417 20.6678 6.04166L20.6672 6.04153L20.6667 6.04166H16.3333C16.1897 6.04166 16.0519 5.98459 15.9503 5.88301C15.8487 5.78143 15.7917 5.64365 15.7917 5.5C15.7917 5.35634 15.8487 5.21856 15.9503 5.11698C16.0519 5.0154 16.1897 4.95833 16.3333 4.95833H19.4871C17.8456 3.21974 15.6493 2.10788 13.2764 1.8142C10.9034 1.52052 8.50231 2.0634 6.4865 3.34936C4.4707 4.63532 2.96634 6.58389 2.23245 8.85954C1.49857 11.1352 1.5811 13.5955 2.46582 15.8169C3.35054 18.0382 4.98209 19.8816 7.07953 21.0296C9.17698 22.1776 11.6091 22.5584 13.957 22.1063C16.305 21.6543 18.4218 20.3978 19.9431 18.5531C21.4644 16.7084 22.2949 14.3911 22.2917 12C22.2917 11.8563 22.3487 11.7186 22.4503 11.617C22.5519 11.5154 22.6897 11.4583 22.8333 11.4583C22.977 11.4583 23.1148 11.5154 23.2164 11.617C23.3179 11.7186 23.375 11.8563 23.375 12C23.375 15.0168 22.1766 17.9101 20.0433 20.0433C17.9101 22.1766 15.0168 23.375 12 23.375C8.98316 23.375 6.08989 22.1766 3.95666 20.0433C1.82344 17.9101 0.625003 15.0168 0.625003 12Z" fill="#00C6ED"/>
</svg>
