<svg width="26" height="26" viewBox="0 0 26 26" fill="none" xmlns="http://www.w3.org/2000/svg">
<path d="M0.859945 25.0073C0.913948 25.0824 0.985041 25.1436 1.06735 25.1858C1.14967 25.228 1.24083 25.25 1.33333 25.25H24.6667C24.7591 25.25 24.8502 25.228 24.9325 25.1859C25.0147 25.1437 25.0858 25.0826 25.1398 25.0077C25.1938 24.9327 25.2293 24.8459 25.2432 24.7545C25.2571 24.6631 25.2491 24.5698 25.2198 24.4821L22.8865 17.4821C22.8478 17.366 22.7736 17.2649 22.6743 17.1934C22.575 17.1218 22.4557 17.0833 22.3333 17.0833H19.2535L17.0531 10.4821C17.0145 10.366 16.9403 10.2649 16.841 10.1934C16.7417 10.1218 16.6224 10.0833 16.5 10.0833H9.5C9.3776 10.0833 9.2583 10.1218 9.15901 10.1934C9.05972 10.2649 8.98549 10.366 8.94686 10.4821L6.74647 17.0833H3.66667C3.54427 17.0833 3.42496 17.1218 3.32567 17.1934C3.22639 17.2649 3.15216 17.366 3.11353 17.4821L0.780192 24.4821C0.750812 24.5697 0.742722 24.663 0.756591 24.7544C0.77046 24.8457 0.805889 24.9324 0.859945 25.0073ZM11.4758 18.25H14.5242L13 22.8227L11.4758 18.25ZM21.9129 18.25L23.8572 24.0833H13.8095L15.7537 18.25H21.9129ZM9.92041 11.25H16.0796L18.0238 17.0833H7.97616L9.92041 11.25ZM4.08707 18.25H10.2463L12.1905 24.0833H2.14282L4.08707 18.25ZM13 0.75C13.0766 0.749956 13.1525 0.765014 13.2233 0.794313C13.2941 0.823613 13.3584 0.866579 13.4126 0.920755C13.4668 0.974932 13.5097 1.03926 13.539 1.11005C13.5683 1.18084 13.5834 1.25672 13.5833 1.33333V6C13.5833 6.15471 13.5219 6.30308 13.4125 6.41248C13.3031 6.52187 13.1547 6.58333 13 6.58333C12.8453 6.58333 12.6969 6.52187 12.5875 6.41248C12.4781 6.30308 12.4167 6.15471 12.4167 6V1.33333C12.4166 1.25672 12.4317 1.18084 12.461 1.11005C12.4903 1.03926 12.5332 0.974932 12.5874 0.920755C12.6416 0.866579 12.7059 0.823613 12.7767 0.794313C12.8475 0.765014 12.9234 0.749956 13 0.75ZM4.27905 3.25423L7.57911 6.55371C7.63417 6.60767 7.67798 6.67201 7.70802 6.74301C7.73806 6.81401 7.75373 6.89026 7.75412 6.96735C7.75451 7.04444 7.73961 7.12084 7.71029 7.19214C7.68097 7.26344 7.63781 7.32822 7.58329 7.38273C7.52878 7.43724 7.464 7.48041 7.3927 7.50973C7.3214 7.53905 7.245 7.55395 7.16791 7.55356C7.09082 7.55317 7.01457 7.5375 6.94357 7.50746C6.87257 7.47742 6.80823 7.43361 6.75427 7.37854L3.45418 4.07911C3.34662 3.96935 3.28672 3.82158 3.2875 3.66791C3.28827 3.51424 3.34966 3.36708 3.45833 3.25842C3.56699 3.14975 3.71415 3.08836 3.86782 3.08759C4.02149 3.08681 4.16926 3.14671 4.27901 3.25427L4.27905 3.25423ZM18.6209 7.37858C18.5667 7.32443 18.5237 7.26013 18.4944 7.18937C18.4651 7.11861 18.45 7.04276 18.45 6.96616C18.45 6.88957 18.4651 6.81372 18.4944 6.74296C18.5237 6.67219 18.5667 6.6079 18.6209 6.55375L21.9209 3.25426C22.0309 3.148 22.1783 3.08921 22.3312 3.09053C22.4842 3.09186 22.6305 3.15321 22.7387 3.26137C22.8468 3.36952 22.9082 3.51583 22.9095 3.66878C22.9108 3.82173 22.852 3.96908 22.7458 4.07909L19.4457 7.37858C19.3916 7.43275 19.3273 7.47573 19.2565 7.50504C19.1857 7.53436 19.1099 7.54945 19.0333 7.54945C18.9567 7.54945 18.8809 7.53436 18.8101 7.50504C18.7393 7.47573 18.675 7.43275 18.6209 7.37858Z" fill="#00C6ED"/>
</svg>
