<svg width="24" height="24" viewBox="0 0 24 24" fill="none" xmlns="http://www.w3.org/2000/svg">
<path d="M20.6667 17.9583C20.131 17.9583 19.6074 18.1172 19.162 18.4148C18.7166 18.7124 18.3695 19.1353 18.1645 19.6302C17.9595 20.1251 17.9059 20.6697 18.0104 21.195C18.1149 21.7204 18.3728 22.203 18.7516 22.5817C19.1304 22.9605 19.6129 23.2185 20.1383 23.323C20.6637 23.4275 21.2082 23.3738 21.7031 23.1688C22.198 22.9639 22.621 22.6167 22.9186 22.1713C23.2162 21.726 23.375 21.2023 23.375 20.6667C23.3743 19.9486 23.0888 19.2601 22.581 18.7523C22.0732 18.2446 21.3848 17.959 20.6667 17.9583ZM20.6667 22.2917C20.3453 22.2917 20.0311 22.1964 19.7639 22.0178C19.4966 21.8392 19.2884 21.5855 19.1654 21.2885C19.0424 20.9916 19.0102 20.6649 19.0729 20.3496C19.1356 20.0344 19.2904 19.7449 19.5176 19.5176C19.7449 19.2904 20.0344 19.1356 20.3496 19.0729C20.6649 19.0102 20.9916 19.0424 21.2885 19.1654C21.5855 19.2884 21.8392 19.4966 22.0178 19.7639C22.1964 20.0311 22.2917 20.3453 22.2917 20.6667C22.2912 21.0975 22.1198 21.5106 21.8152 21.8152C21.5106 22.1198 21.0975 22.2912 20.6667 22.2917ZM3.33333 20.125C3.86899 20.125 4.39262 19.9662 4.838 19.6686C5.28339 19.371 5.63052 18.948 5.83551 18.4531C6.04049 17.9582 6.09413 17.4137 5.98963 16.8883C5.88513 16.3629 5.62718 15.8804 5.24841 15.5016C4.86965 15.1228 4.38707 14.8649 3.8617 14.7604C3.33634 14.6559 2.79178 14.7095 2.2969 14.9145C1.80202 15.1195 1.37903 15.4666 1.08144 15.912C0.783841 16.3574 0.625 16.881 0.625 17.4167C0.625663 18.1348 0.911217 18.8232 1.41898 19.331C1.92675 19.8388 2.61524 20.1243 3.33333 20.125ZM3.33333 15.7917C3.65473 15.7917 3.96891 15.887 4.23614 16.0655C4.50337 16.2441 4.71165 16.4979 4.83464 16.7948C4.95763 17.0917 4.98981 17.4185 4.92711 17.7337C4.86441 18.0489 4.70964 18.3385 4.48238 18.5657C4.25512 18.793 3.96557 18.9477 3.65036 19.0104C3.33514 19.0731 3.0084 19.041 2.71147 18.918C2.41454 18.795 2.16075 18.5867 1.9822 18.3195C1.80364 18.0522 1.70833 17.7381 1.70833 17.4167C1.7088 16.9858 1.88016 16.5728 2.1848 16.2681C2.48945 15.9635 2.9025 15.7921 3.33333 15.7917ZM20.6667 0.625C20.131 0.625 19.6074 0.783841 19.162 1.08144C18.7166 1.37903 18.3695 1.80202 18.1645 2.2969C17.9595 2.79178 17.9059 3.33634 18.0104 3.8617C18.1149 4.38707 18.3728 4.86965 18.7516 5.24841C19.1304 5.62718 19.6129 5.88513 20.1383 5.98963C20.6637 6.09413 21.2082 6.04049 21.7031 5.83551C22.198 5.63052 22.621 5.28339 22.9186 4.838C23.2162 4.39262 23.375 3.86899 23.375 3.33333C23.3743 2.61524 23.0888 1.92675 22.581 1.41898C22.0732 0.911217 21.3848 0.625663 20.6667 0.625ZM20.6667 4.95833C20.3453 4.95833 20.0311 4.86303 19.7639 4.68447C19.4966 4.50591 19.2884 4.25212 19.1654 3.95519C19.0424 3.65826 19.0102 3.33153 19.0729 3.01631C19.1356 2.70109 19.2904 2.41155 19.5176 2.18428C19.7449 1.95702 20.0344 1.80226 20.3496 1.73956C20.6649 1.67686 20.9916 1.70904 21.2885 1.83203C21.5855 1.95502 21.8392 2.1633 22.0178 2.43053C22.1964 2.69776 22.2917 3.01194 22.2917 3.33333C22.2912 3.76417 22.1198 4.17722 21.8152 4.48186C21.5106 4.78651 21.0975 4.95786 20.6667 4.95833ZM4.41667 0.625C3.41105 0.625 2.44663 1.02448 1.73555 1.73555C1.02448 2.44663 0.625 3.41105 0.625 4.41667C0.625 5.42228 1.02448 6.3867 1.73555 7.09778C2.44663 7.80886 3.41105 8.20833 4.41667 8.20833C5.23325 8.20566 6.02671 7.9369 6.67683 7.44277L8.20807 8.97402C7.62582 9.68046 7.26043 10.5403 7.15597 11.4498C7.05152 12.3592 7.21246 13.2795 7.61939 14.0996L6.67405 14.6904C6.90562 14.9691 7.10118 15.2758 7.25612 15.6034L8.19849 15.0143C8.59045 15.521 9.07996 15.9439 9.63809 16.2582C10.1962 16.5725 10.8117 16.7717 11.4481 16.8442C12.0845 16.9167 12.729 16.8609 13.3435 16.6802C13.9581 16.4995 14.5301 16.1974 15.026 15.7919L17.2574 18.0234C17.4798 17.7371 17.7371 17.4798 18.0233 17.2575L15.7919 15.026C16.4922 14.1731 16.8749 13.1036 16.8749 12C16.8749 10.8964 16.4922 9.827 15.7919 8.97405L18.0234 6.74258C17.7371 6.52025 17.4798 6.26294 17.2575 5.97667L15.026 8.20807C14.173 7.50778 13.1036 7.125 12 7.125C10.8964 7.125 9.82697 7.50778 8.97402 8.20807L7.44277 6.67683C7.9369 6.02671 8.20566 5.23325 8.20833 4.41667C8.20712 3.41143 7.80725 2.44771 7.09644 1.7369C6.38563 1.02608 5.42191 0.626216 4.41667 0.625ZM12 8.20833C12.7499 8.20833 13.483 8.43071 14.1065 8.84734C14.7301 9.26398 15.2161 9.85616 15.503 10.549C15.79 11.2418 15.8651 12.0042 15.7188 12.7397C15.5725 13.4752 15.2114 14.1508 14.6811 14.6811C14.1508 15.2114 13.4752 15.5725 12.7397 15.7188C12.0042 15.8651 11.2418 15.79 10.549 15.503C9.85616 15.2161 9.26398 14.7301 8.84734 14.1065C8.43071 13.483 8.20833 12.7499 8.20833 12C8.20955 10.9948 8.60942 10.031 9.32023 9.32023C10.031 8.60942 10.9948 8.20955 12 8.20833ZM4.41667 7.125C3.88101 7.125 3.35738 6.96616 2.912 6.66856C2.46661 6.37097 2.11948 5.94798 1.91449 5.4531C1.70951 4.95822 1.65587 4.41366 1.76037 3.8883C1.86487 3.36293 2.12282 2.88035 2.50159 2.50159C2.88035 2.12282 3.36293 1.86487 3.8883 1.76037C4.41366 1.65587 4.95822 1.70951 5.4531 1.91449C5.94798 2.11948 6.37097 2.46661 6.66856 2.912C6.96616 3.35738 7.125 3.88101 7.125 4.41667C7.12434 5.13476 6.83878 5.82325 6.33102 6.33102C5.82325 6.83878 5.13476 7.12434 4.41667 7.125Z" fill="#00C6ED"/>
</svg>
