<svg width="28" height="28" viewBox="0 0 28 28" fill="none" xmlns="http://www.w3.org/2000/svg">
<path d="M1.85995 26.0073C1.91395 26.0824 1.98504 26.1436 2.06735 26.1858C2.14967 26.228 2.24083 26.25 2.33333 26.25H25.6667C25.7591 26.25 25.8502 26.228 25.9325 26.1859C26.0147 26.1437 26.0858 26.0826 26.1398 26.0077C26.1938 25.9327 26.2293 25.8459 26.2432 25.7545C26.2571 25.6631 26.2491 25.5698 26.2198 25.4821L23.8865 18.4821C23.8478 18.366 23.7736 18.2649 23.6743 18.1934C23.575 18.1218 23.4557 18.0833 23.3333 18.0833H20.2535L18.0531 11.4821C18.0145 11.366 17.9403 11.2649 17.841 11.1934C17.7417 11.1218 17.6224 11.0833 17.5 11.0833H10.5C10.3776 11.0833 10.2583 11.1218 10.159 11.1934C10.0597 11.2649 9.98549 11.366 9.94686 11.4821L7.74647 18.0833H4.66667C4.54427 18.0833 4.42496 18.1218 4.32567 18.1934C4.22639 18.2649 4.15216 18.366 4.11353 18.4821L1.78019 25.4821C1.75081 25.5697 1.74272 25.663 1.75659 25.7544C1.77046 25.8457 1.80589 25.9324 1.85995 26.0073ZM12.4758 19.25H15.5242L14 23.8227L12.4758 19.25ZM22.9129 19.25L24.8572 25.0833H14.8095L16.7537 19.25H22.9129ZM10.9204 12.25H17.0796L19.0238 18.0833H8.97616L10.9204 12.25ZM5.08707 19.25H11.2463L13.1905 25.0833H3.14282L5.08707 19.25ZM14 1.75C14.0766 1.74996 14.1525 1.76501 14.2233 1.79431C14.2941 1.82361 14.3584 1.86658 14.4126 1.92076C14.4668 1.97493 14.5097 2.03926 14.539 2.11005C14.5683 2.18084 14.5834 2.25672 14.5833 2.33333V7C14.5833 7.15471 14.5219 7.30308 14.4125 7.41248C14.3031 7.52187 14.1547 7.58333 14 7.58333C13.8453 7.58333 13.6969 7.52187 13.5875 7.41248C13.4781 7.30308 13.4167 7.15471 13.4167 7V2.33333C13.4166 2.25672 13.4317 2.18084 13.461 2.11005C13.4903 2.03926 13.5332 1.97493 13.5874 1.92076C13.6416 1.86658 13.7059 1.82361 13.7767 1.79431C13.8475 1.76501 13.9234 1.74996 14 1.75ZM5.27905 4.25423L8.57911 7.55371C8.63417 7.60767 8.67798 7.67201 8.70802 7.74301C8.73806 7.81401 8.75373 7.89026 8.75412 7.96735C8.75451 8.04444 8.73961 8.12084 8.71029 8.19214C8.68097 8.26344 8.63781 8.32822 8.58329 8.38273C8.52878 8.43724 8.464 8.48041 8.3927 8.50973C8.3214 8.53905 8.245 8.55395 8.16791 8.55356C8.09082 8.55317 8.01457 8.5375 7.94357 8.50746C7.87257 8.47742 7.80823 8.43361 7.75427 8.37854L4.45418 5.07911C4.34662 4.96935 4.28672 4.82158 4.2875 4.66791C4.28827 4.51424 4.34966 4.36708 4.45833 4.25842C4.56699 4.14975 4.71415 4.08836 4.86782 4.08759C5.02149 4.08681 5.16926 4.14671 5.27901 4.25427L5.27905 4.25423ZM19.6209 8.37858C19.5667 8.32443 19.5237 8.26013 19.4944 8.18937C19.4651 8.11861 19.45 8.04276 19.45 7.96616C19.45 7.88957 19.4651 7.81372 19.4944 7.74296C19.5237 7.67219 19.5667 7.6079 19.6209 7.55375L22.9209 4.25426C23.0309 4.148 23.1783 4.08921 23.3312 4.09053C23.4842 4.09186 23.6305 4.15321 23.7387 4.26137C23.8468 4.36952 23.9082 4.51583 23.9095 4.66878C23.9108 4.82173 23.852 4.96908 23.7458 5.07909L20.4457 8.37858C20.3916 8.43275 20.3273 8.47573 20.2565 8.50504C20.1857 8.53436 20.1099 8.54945 20.0333 8.54945C19.9567 8.54945 19.8809 8.53436 19.8101 8.50504C19.7393 8.47573 19.675 8.43275 19.6209 8.37858Z" fill="#00C6ED"/>
</svg>
    