<svg width="27" height="27" viewBox="0 0 27 27" fill="none" xmlns="http://www.w3.org/2000/svg">
<path d="M10.6875 16.875C10.6875 17.4313 10.8524 17.975 11.1615 18.4375C11.4705 18.9001 11.9098 19.2605 12.4237 19.4734C12.9376 19.6863 13.5031 19.742 14.0487 19.6335C14.5943 19.5249 15.0954 19.2571 15.4887 18.8637C15.8821 18.4704 16.1499 17.9693 16.2585 17.4237C16.367 16.8781 16.3113 16.3126 16.0984 15.7987C15.8855 15.2848 15.5251 14.8455 15.0625 14.5365C14.6 14.2274 14.0563 14.0625 13.5 14.0625C12.7543 14.0632 12.0393 14.3597 11.512 14.887C10.9847 15.4143 10.6882 16.1293 10.6875 16.875V16.875ZM15.1875 16.875C15.1875 17.2088 15.0885 17.535 14.9031 17.8125C14.7177 18.09 14.4541 18.3063 14.1458 18.434C13.8374 18.5618 13.4981 18.5952 13.1708 18.5301C12.8434 18.465 12.5428 18.3042 12.3068 18.0682C12.0708 17.8322 11.91 17.5316 11.8449 17.2042C11.7798 16.8769 11.8132 16.5376 11.941 16.2292C12.0687 15.9209 12.285 15.6573 12.5625 15.4719C12.84 15.2865 13.1662 15.1875 13.5 15.1875C13.9474 15.188 14.3763 15.3659 14.6927 15.6823C15.0091 15.9987 15.187 16.4276 15.1875 16.875ZM19.125 17.4375C18.9758 17.4375 18.8327 17.3782 18.7273 17.2727C18.6218 17.1673 18.5625 17.0242 18.5625 16.875C18.5625 16.7258 18.6218 16.5827 18.7273 16.4773C18.8327 16.3718 18.9758 16.3125 19.125 16.3125H21.375C21.5242 16.3125 21.6673 16.3718 21.7727 16.4773C21.8782 16.5827 21.9375 16.7258 21.9375 16.875C21.9375 17.0242 21.8782 17.1673 21.7727 17.2727C21.6673 17.3782 21.5242 17.4375 21.375 17.4375H19.125ZM7.875 16.3125C8.02418 16.3125 8.16726 16.3718 8.27275 16.4773C8.37824 16.5827 8.4375 16.7258 8.4375 16.875C8.4375 17.0242 8.37824 17.1673 8.27275 17.2727C8.16726 17.3782 8.02418 17.4375 7.875 17.4375H5.625C5.47582 17.4375 5.33274 17.3782 5.22725 17.2727C5.12176 17.1673 5.0625 17.0242 5.0625 16.875C5.0625 16.7258 5.12176 16.5827 5.22725 16.4773C5.33274 16.3718 5.47582 16.3125 5.625 16.3125H7.875ZM18.3977 7.14771L13.8977 11.6477C13.8455 11.6999 13.7835 11.7414 13.7153 11.7697C13.647 11.7979 13.5739 11.8125 13.5 11.8125C13.4262 11.8125 13.353 11.7979 13.2848 11.7697C13.2166 11.7414 13.1546 11.6999 13.1023 11.6477L8.60234 7.14771C8.49987 7.04162 8.44317 6.89953 8.44446 6.75205C8.44574 6.60456 8.5049 6.46348 8.60919 6.35919C8.71348 6.2549 8.85456 6.19574 9.00205 6.19446C9.14953 6.19317 9.29162 6.24987 9.39771 6.35234L12.9375 9.89213V2.25C12.9375 2.10082 12.9968 1.95774 13.1023 1.85225C13.2077 1.74676 13.3508 1.6875 13.5 1.6875C13.6492 1.6875 13.7923 1.74676 13.8977 1.85225C14.0032 1.95774 14.0625 2.10082 14.0625 2.25V9.89213L17.6023 6.35232C17.7084 6.24986 17.8505 6.19316 17.998 6.19444C18.1454 6.19573 18.2865 6.25488 18.3908 6.35918C18.4951 6.46347 18.5543 6.60455 18.5555 6.75204C18.5568 6.89952 18.5001 7.04161 18.3977 7.1477L18.3977 7.14771ZM25.3125 11.25V22.5C25.3118 23.2457 25.0153 23.9607 24.488 24.488C23.9607 25.0153 23.2457 25.3118 22.5 25.3125H4.5C3.75429 25.3118 3.03932 25.0153 2.51202 24.488C1.98473 23.9607 1.68819 23.2457 1.6875 22.5V11.25C1.68819 10.5043 1.98473 9.78932 2.51202 9.26202C3.03932 8.73472 3.75429 8.43819 4.5 8.4375H7.50586L8.63086 9.5625H4.5C4.0526 9.56299 3.62366 9.74093 3.3073 10.0573C2.99093 10.3737 2.81299 10.8026 2.8125 11.25V22.5C2.81299 22.9474 2.99093 23.3763 3.3073 23.6927C3.62366 24.0091 4.0526 24.187 4.5 24.1875H22.5C22.9474 24.187 23.3763 24.0091 23.6927 23.6927C24.0091 23.3763 24.187 22.9474 24.1875 22.5V11.25C24.187 10.8026 24.0091 10.3737 23.6927 10.0573C23.3763 9.74093 22.9474 9.56299 22.5 9.5625H18.3691L19.4941 8.4375H22.5C23.2457 8.43819 23.9607 8.73472 24.488 9.26202C25.0153 9.78932 25.3118 10.5043 25.3125 11.25V11.25Z" fill="#00C6ED"/>
</svg>
