<svg width="27" height="27" viewBox="0 0 27 27" fill="none" xmlns="http://www.w3.org/2000/svg">
<path d="M2.8125 4.5C2.8125 4.35082 2.87176 4.20774 2.97725 4.10225C3.08274 3.99676 3.22582 3.9375 3.375 3.9375C3.52418 3.9375 3.66726 3.99676 3.77275 4.10225C3.87824 4.20774 3.9375 4.35082 3.9375 4.5V20.25C3.93799 20.6974 4.11593 21.1263 4.4323 21.4427C4.74866 21.7591 5.1776 21.937 5.625 21.9375H23.625C23.7742 21.9375 23.9173 21.9968 24.0227 22.1023C24.1282 22.2077 24.1875 22.3508 24.1875 22.5C24.1875 22.6492 24.1282 22.7923 24.0227 22.8977C23.9173 23.0032 23.7742 23.0625 23.625 23.0625H5.625C4.87935 23.0616 4.16449 22.765 3.63723 22.2378C3.10997 21.7105 2.81338 20.9957 2.8125 20.25V4.5ZM22.1023 10.8523L17.9583 14.9963L12.7266 10.8106C12.6184 10.7241 12.4822 10.6806 12.344 10.6883C12.2057 10.696 12.0752 10.7544 11.9773 10.8523L7.47731 15.3523C7.37485 15.4584 7.31815 15.6005 7.31943 15.748C7.32071 15.8954 7.37987 16.0365 7.48416 16.1408C7.58846 16.2451 7.72954 16.3043 7.87702 16.3055C8.02451 16.3068 8.1666 16.2501 8.27269 16.1477L12.4167 12.0036L17.6484 16.1894C17.7566 16.2758 17.8928 16.3193 18.031 16.3116C18.1692 16.3039 18.2998 16.2455 18.3977 16.1477L22.8977 11.6477C23.0001 11.5416 23.0568 11.3995 23.0555 11.252C23.0543 11.1045 22.9951 10.9634 22.8908 10.8591C22.7865 10.7548 22.6454 10.6957 22.498 10.6944C22.3505 10.6931 22.2084 10.7498 22.1023 10.8523Z" fill="#00C6ED"/>
</svg>
        