<svg width="26" height="26" viewBox="0 0 26 26" fill="none" xmlns="http://www.w3.org/2000/svg">
<path d="M12.9999 13.5417C14.1784 13.5417 15.3303 13.1922 16.3102 12.5375C17.29 11.8828 18.0537 10.9522 18.5047 9.86349C18.9557 8.77475 19.0737 7.57673 18.8438 6.42092C18.6139 5.26512 18.0464 4.20345 17.2131 3.37016C16.3798 2.53687 15.3181 1.96939 14.1623 1.73949C13.0065 1.50959 11.8085 1.62758 10.7198 2.07855C9.63102 2.52953 8.70046 3.29322 8.04574 4.27306C7.39104 5.25291 7.04158 6.40489 7.04158 7.58334C7.04346 9.16301 7.67181 10.6774 8.78881 11.7944C9.90581 12.9114 11.4202 13.5398 12.9999 13.5417ZM12.9999 2.70834C13.9641 2.70834 14.9066 2.99425 15.7083 3.52992C16.51 4.06559 17.1349 4.82696 17.5038 5.71775C17.8728 6.60854 17.9693 7.58874 17.7812 8.5344C17.5931 9.48006 17.1288 10.3487 16.4471 11.0305C15.7653 11.7123 14.8966 12.1766 13.951 12.3647C13.0053 12.5528 12.0251 12.4562 11.1343 12.0872C10.2435 11.7183 9.48218 11.0934 8.9465 10.2917C8.41083 9.49005 8.12492 8.54752 8.12492 7.58334C8.12633 6.29084 8.64039 5.05168 9.55433 4.13775C10.4683 3.22381 11.7074 2.70974 12.9999 2.70834ZM7.58325 16.7917H18.4166C19.7091 16.7931 20.9482 17.3071 21.8622 18.2211C22.7761 19.135 23.2902 20.3742 23.2916 21.6667V23.8333C23.2916 23.977 23.2345 24.1148 23.1329 24.2164C23.0314 24.3179 22.8936 24.375 22.7499 24.375C22.6063 24.375 22.4685 24.3179 22.3669 24.2164C22.2653 24.1148 22.2083 23.977 22.2083 23.8333V21.6667C22.207 20.6614 21.8072 19.6977 21.0964 18.9869C20.3855 18.2761 19.4218 17.8762 18.4166 17.875H7.58325C6.57801 17.8762 5.61429 18.2761 4.90348 18.9869C4.19267 19.6977 3.7928 20.6614 3.79159 21.6667V23.8333C3.79159 23.977 3.73452 24.1148 3.63293 24.2164C3.53135 24.3179 3.39358 24.375 3.24992 24.375C3.10626 24.375 2.96848 24.3179 2.8669 24.2164C2.76532 24.1148 2.70825 23.977 2.70825 23.8333V21.6667C2.70966 20.3742 3.22373 19.135 4.13766 18.2211C5.0516 17.3071 6.29075 16.7931 7.58325 16.7917Z" fill="#00C6ED"/>
</svg>
