<svg width="26" height="26" viewBox="0 0 26 26" fill="none" xmlns="http://www.w3.org/2000/svg">
<path d="M1.625 13C1.62349 10.7396 2.2959 8.53012 3.55631 6.65378C4.81672 4.77744 6.60791 3.31946 8.70102 2.46613C10.7941 1.6128 13.0941 1.40286 15.3071 1.86314C17.5202 2.32342 19.5457 3.43301 21.125 5.05015V2.16666C21.125 2.023 21.1821 1.88523 21.2837 1.78365C21.3852 1.68206 21.523 1.625 21.6667 1.625C21.8103 1.625 21.9481 1.68206 22.0497 1.78365C22.1513 1.88523 22.2083 2.023 22.2083 2.16666V6.49477L22.2094 6.5C22.2095 6.57114 22.1955 6.64159 22.1683 6.70733C22.1411 6.77307 22.1012 6.83279 22.0509 6.8831C22.0006 6.93341 21.9408 6.9733 21.8751 7.00051C21.8094 7.02772 21.7389 7.0417 21.6678 7.04166L21.6672 7.04153L21.6667 7.04166H17.3333C17.1897 7.04166 17.0519 6.98459 16.9503 6.88301C16.8487 6.78143 16.7917 6.64365 16.7917 6.5C16.7917 6.35634 16.8487 6.21856 16.9503 6.11698C17.0519 6.0154 17.1897 5.95833 17.3333 5.95833H20.4871C18.8456 4.21974 16.6493 3.10788 14.2764 2.8142C11.9034 2.52052 9.50231 3.0634 7.4865 4.34936C5.4707 5.63532 3.96634 7.58389 3.23245 9.85954C2.49857 12.1352 2.5811 14.5955 3.46582 16.8169C4.35054 19.0382 5.98209 20.8816 8.07953 22.0296C10.177 23.1776 12.6091 23.5584 14.957 23.1063C17.305 22.6543 19.4218 21.3978 20.9431 19.5531C22.4644 17.7084 23.2949 15.3911 23.2917 13C23.2917 12.8563 23.3487 12.7186 23.4503 12.617C23.5519 12.5154 23.6897 12.4583 23.8333 12.4583C23.977 12.4583 24.1148 12.5154 24.2164 12.617C24.3179 12.7186 24.375 12.8563 24.375 13C24.375 16.0168 23.1766 18.9101 21.0433 21.0433C18.9101 23.1766 16.0168 24.375 13 24.375C9.98316 24.375 7.08989 23.1766 4.95666 21.0433C2.82344 18.9101 1.625 16.0168 1.625 13Z" fill="#00C6ED"/>
</svg>
