<svg width="26" height="26" viewBox="0 0 26 26" fill="none" xmlns="http://www.w3.org/2000/svg">
<path d="M21.6667 1.625H4.33333C3.61527 1.62575 2.92683 1.91134 2.41909 2.41909C1.91134 2.92683 1.62575 3.61527 1.625 4.33333V13C1.62575 13.7181 1.91134 14.4065 2.41909 14.9142C2.92683 15.422 3.61527 15.7076 4.33333 15.7083H21.6667C22.3848 15.7077 23.0732 15.4221 23.581 14.9143C24.0888 14.4066 24.3743 13.7181 24.375 13V4.33333C24.3743 3.61524 24.0888 2.92675 23.581 2.41898C23.0732 1.91122 22.3848 1.62566 21.6667 1.625ZM23.2917 13C23.2912 13.4308 23.1198 13.8439 22.8152 14.1485C22.5106 14.4532 22.0975 14.6245 21.6667 14.625H4.33333C3.9025 14.6245 3.48945 14.4532 3.1848 14.1485C2.88016 13.8439 2.7088 13.4308 2.70833 13V4.33333C2.7088 3.9025 2.88016 3.48945 3.1848 3.1848C3.48945 2.88016 3.9025 2.7088 4.33333 2.70833H21.6667C22.0975 2.7088 22.5106 2.88016 22.8152 3.1848C23.1198 3.48945 23.2912 3.9025 23.2917 4.33333V13ZM13 5.95833C12.4643 5.95833 11.9407 6.11717 11.4953 6.41477C11.0499 6.71237 10.7028 7.13535 10.4978 7.63023C10.2928 8.12512 10.2392 8.66967 10.3437 9.19504C10.4482 9.7204 10.7062 10.203 11.0849 10.5817C11.4637 10.9605 11.9463 11.2185 12.4716 11.323C12.997 11.4275 13.5416 11.3738 14.0364 11.1688C14.5313 10.9639 14.9543 10.6167 15.2519 10.1713C15.5495 9.72595 15.7083 9.20232 15.7083 8.66667C15.7076 7.9486 15.422 7.26017 14.9142 6.75242C14.4065 6.24467 13.7181 5.95909 13 5.95833ZM13 10.2917C12.6786 10.2917 12.3644 10.1964 12.0972 10.0178C11.83 9.83925 11.6217 9.58546 11.4987 9.28853C11.3757 8.9916 11.3435 8.66486 11.4062 8.34965C11.4689 8.03443 11.6237 7.74488 11.851 7.51762C12.0782 7.29036 12.3678 7.13559 12.683 7.07289C12.9982 7.01019 13.3249 7.04237 13.6219 7.16536C13.9188 7.28835 14.1726 7.49664 14.3511 7.76386C14.5297 8.0311 14.625 8.34527 14.625 8.66667C14.6245 9.0975 14.4532 9.51055 14.1485 9.8152C13.8439 10.1198 13.4308 10.2912 13 10.2917ZM21.125 8.66667C21.125 8.73781 21.1111 8.80827 21.0839 8.874C21.0566 8.93974 21.0167 8.99947 20.9664 9.04978C20.9161 9.10008 20.8564 9.13998 20.7907 9.16719C20.7249 9.19439 20.6545 9.20837 20.5833 9.20833H18.4167C18.273 9.20833 18.1352 9.15127 18.0337 9.04968C17.9321 8.9481 17.875 8.81033 17.875 8.66667C17.875 8.52301 17.9321 8.38523 18.0337 8.28365C18.1352 8.18207 18.273 8.125 18.4167 8.125H20.5833C20.6545 8.12496 20.7249 8.13894 20.7907 8.16615C20.8564 8.19335 20.9161 8.23325 20.9664 8.28356C21.0167 8.33387 21.0566 8.39359 21.0839 8.45933C21.1111 8.52507 21.125 8.59552 21.125 8.66667ZM8.125 8.66667C8.12504 8.73781 8.11106 8.80827 8.08385 8.874C8.05665 8.93974 8.01675 8.99947 7.96644 9.04978C7.91614 9.10008 7.85641 9.13998 7.79067 9.16719C7.72493 9.19439 7.65448 9.20837 7.58333 9.20833H5.41667C5.27301 9.20833 5.13523 9.15127 5.03365 9.04968C4.93207 8.9481 4.875 8.81033 4.875 8.66667C4.875 8.52301 4.93207 8.38523 5.03365 8.28365C5.13523 8.18207 5.27301 8.125 5.41667 8.125H7.58333C7.65448 8.12496 7.72493 8.13894 7.79067 8.16615C7.85641 8.19335 7.91614 8.23325 7.96644 8.28356C8.01675 8.33387 8.05665 8.39359 8.08385 8.45933C8.11106 8.52507 8.12504 8.59552 8.125 8.66667ZM23.2917 17.0111C23.6831 16.8471 24.0481 16.6262 24.375 16.3555V17.3333C24.3743 18.0514 24.0888 18.7399 23.581 19.2477C23.0732 19.7555 22.3848 20.041 21.6667 20.0417H4.33333C3.61527 20.0409 2.92683 19.7553 2.41909 19.2476C1.91134 18.7398 1.62575 18.0514 1.625 17.3333V16.3553C1.95186 16.6261 2.31691 16.847 2.70833 17.0111V17.3333C2.7088 17.7642 2.88016 18.1772 3.1848 18.4819C3.48945 18.7865 3.9025 18.9579 4.33333 18.9583H21.6667C22.0975 18.9579 22.5106 18.7865 22.8152 18.4819C23.1198 18.1772 23.2912 17.7642 23.2917 17.3333V17.0111ZM23.2917 21.3445C23.6831 21.1805 24.0481 20.9596 24.375 20.6889V21.6667C24.3743 22.3848 24.0888 23.0732 23.581 23.581C23.0732 24.0888 22.3848 24.3743 21.6667 24.375H4.33333C3.61527 24.3742 2.92683 24.0887 2.41909 23.5809C1.91134 23.0732 1.62575 22.3847 1.625 21.6667V20.6887C1.95186 20.9594 2.31691 21.1803 2.70833 21.3444V21.6667C2.7088 22.0975 2.88016 22.5106 3.1848 22.8152C3.48945 23.1198 3.9025 23.2912 4.33333 23.2917H21.6667C22.0975 23.2912 22.5106 23.1198 22.8152 22.8152C23.1198 22.5106 23.2912 22.0975 23.2917 21.6667V21.3445Z" fill="#00C6ED"/>
</svg>
